<svg xmlns="http://www.w3.org/2000/svg" width="1024" height="1024" viewBox="0 0 1024 1024">
<g>
<path d="M 771.20 820.87 C763.75,822.46 719.80,822.40 718.20,820.80 C717.34,819.94 717.00,813.58 717.00,798.50 C717.00,783.42 717.34,777.06 718.20,776.20 C719.05,775.35 724.97,775.00 738.45,775.00 C755.62,774.99 757.82,774.80 760.72,773.03 C762.50,771.95 764.30,769.81 764.72,768.28 C765.15,766.75 765.50,695.75 765.50,610.50 C765.50,474.44 765.32,455.17 764.00,452.80 C763.17,451.31 755.47,444.34 746.89,437.30 C738.31,430.26 726.16,420.20 719.89,414.95 C713.63,409.70 701.75,399.81 693.50,392.98 C685.25,386.15 655.55,361.44 627.50,338.07 C599.45,314.69 573.12,292.78 569.00,289.37 C564.88,285.95 551.42,274.79 539.11,264.56 C526.79,254.33 515.63,245.69 514.31,245.36 C512.99,245.03 510.38,245.38 508.50,246.13 C505.40,247.37 482.62,265.96 438.00,303.63 C428.92,311.30 407.98,328.86 391.45,342.66 C374.92,356.46 360.00,369.04 358.28,370.63 C356.56,372.21 334.73,390.38 309.76,411.00 C284.79,431.62 263.49,449.62 262.43,451.00 C260.58,453.39 260.49,455.95 260.21,510.94 C260.02,550.44 259.59,568.79 258.84,569.69 C257.35,571.49 218.99,571.59 217.20,569.80 C216.29,568.89 216.00,554.05 216.01,509.05 C216.03,442.98 216.13,441.79 222.47,430.52 C226.69,423.02 230.90,418.95 253.64,400.34 C275.82,382.19 327.11,339.83 368.50,305.47 C377.85,297.71 399.90,279.50 417.50,265.01 C435.10,250.51 456.80,232.55 465.72,225.08 C487.77,206.63 494.78,203.30 512.50,202.87 C518.85,202.72 521.98,203.20 527.66,205.21 C536.15,208.21 539.98,210.69 554.40,222.56 C560.38,227.48 569.41,234.88 574.48,239.00 C579.54,243.12 592.14,253.48 602.47,262.00 C612.80,270.52 622.94,278.85 625.01,280.50 C628.81,283.53 634.83,288.49 667.58,315.56 C726.17,363.99 766.85,397.49 775.54,404.50 C796.87,421.68 802.47,428.50 806.43,442.11 C807.87,447.07 808.00,464.26 807.76,617.55 L 807.50 787.50 L 803.62 795.26 C796.98,808.54 785.12,817.90 771.20,820.87 ZM 555.56 819.25 L 553.18 822.00 L 530.84 821.92 C518.55,821.88 507.94,821.62 507.25,821.34 C506.56,821.06 506.00,820.24 506.00,819.52 C506.00,818.80 511.32,809.95 517.82,799.85 C524.33,789.76 537.64,768.96 547.41,753.62 L 565.18 725.75 L 550.34 703.65 C542.18,691.49 529.31,672.33 521.75,661.07 C514.19,649.81 508.00,639.84 508.00,638.92 C508.00,637.99 509.01,636.96 510.25,636.63 C513.48,635.76 556.29,635.89 557.57,636.77 C558.49,637.40 570.60,655.47 586.77,680.35 L 591.23 687.20 L 597.01 678.35 C600.20,673.48 607.16,662.83 612.48,654.67 C617.80,646.51 623.02,638.98 624.08,637.92 C625.86,636.14 627.66,636.00 649.43,636.00 C672.30,636.00 672.88,636.05 673.53,638.08 C674.04,639.71 668.09,649.32 646.40,681.83 C631.12,704.75 618.29,723.95 617.90,724.50 C617.50,725.05 624.00,735.86 632.34,748.52 C670.28,806.14 678.07,818.37 677.78,819.88 C677.51,821.30 674.79,821.53 655.35,821.77 C642.75,821.92 632.13,821.62 630.68,821.07 C629.00,820.43 625.51,816.06 620.47,808.30 C616.26,801.81 608.24,789.43 602.66,780.80 C597.07,772.16 592.05,765.08 591.50,765.05 C590.95,765.02 588.86,767.59 586.87,770.75 C565.49,804.66 557.57,816.93 555.56,819.25 ZM 429.06 819.35 L 428.05 822.00 L 409.77 821.97 C399.23,821.95 390.76,821.51 389.75,820.92 C388.12,819.97 388.00,816.71 388.00,775.09 L 388.00 730.29 L 384.68 725.89 C374.06,711.83 326.00,640.84 326.00,639.22 C326.00,637.66 326.93,637.14 330.64,636.64 C336.29,635.86 352.58,635.97 363.70,636.85 L 371.90 637.50 L 382.06 652.50 C387.66,660.75 393.08,668.43 394.12,669.56 C395.15,670.70 396.00,671.96 396.00,672.36 C396.00,673.69 408.15,691.00 409.08,691.00 C409.59,691.00 410.00,690.36 410.00,689.58 C410.00,688.80 410.37,688.02 410.82,687.83 C411.28,687.65 419.18,676.36 428.38,662.75 C437.59,649.14 445.96,637.56 446.99,637.00 C449.00,635.93 487.73,635.57 490.42,636.61 C492.94,637.58 492.18,641.09 488.20,646.81 C486.16,649.73 475.88,664.35 465.34,679.31 C454.81,694.26 444.23,709.30 441.84,712.73 C439.45,716.16 435.78,721.41 433.68,724.41 L 429.85 729.86 L 429.96 773.28 C430.03,800.34 429.69,817.69 429.06,819.35 ZM 326.90 820.62 C325.35,822.49 260.37,822.44 252.00,820.56 C236.66,817.13 223.87,805.85 218.85,791.30 L 216.50 784.50 L 216.50 637.50 L 226.00 637.00 C231.23,636.72 240.90,636.72 247.50,637.00 L 259.50 637.50 L 260.00 702.50 C260.41,755.88 260.75,767.88 261.90,769.60 C265.06,774.35 265.84,774.47 297.50,775.00 L 327.50 775.50 L 327.77 797.37 C327.96,812.67 327.70,819.66 326.90,820.62 Z" fill="rgb(1,1,1)"/>
<path d="M 0.00 0.00 L 1024.00 0.00 L 1024.00 1024.00 L 0.00 1024.00 ZM 771.20 820.87 C778.50,819.31 785.22,816.00 790.93,811.29 C788.63,813.52 787.00,815.21 787.00,815.40 C787.00,815.66 787.87,815.81 788.93,815.73 C789.99,815.65 790.64,815.23 790.37,814.79 C789.70,813.70 793.17,813.82 794.95,814.95 C796.87,816.16 800.33,814.29 799.61,812.42 C798.70,810.06 800.07,808.00 802.55,808.00 C805.53,808.00 806.06,807.07 806.40,801.16 C806.56,798.50 806.98,795.84 807.34,795.25 C807.71,794.67 807.62,793.16 807.16,791.90 C806.64,790.51 806.29,790.26 805.18,792.13 L 807.50 787.50 L 807.76 617.55 C808.00,464.26 807.87,447.07 806.43,442.11 C805.91,440.33 805.37,438.67 804.77,437.09 C805.84,439.41 806.62,441.00 806.69,441.00 C806.79,441.00 806.89,440.21 806.90,439.25 C806.91,438.29 807.10,435.25 807.32,432.50 C807.79,426.64 806.83,424.26 803.83,423.82 C802.63,423.64 800.92,422.15 800.02,420.50 C799.12,418.85 796.99,416.87 795.27,416.10 C792.55,414.88 790.32,411.23 790.81,408.83 C790.89,408.46 789.61,408.32 787.98,408.53 C785.56,408.83 784.75,408.40 783.63,406.20 C782.88,404.72 782.38,402.77 782.53,401.88 C782.71,400.72 782.03,400.25 780.18,400.25 C778.75,400.25 777.41,399.74 777.21,399.12 C777.00,398.50 776.34,398.29 775.74,398.66 C775.03,399.10 774.91,398.69 775.38,397.44 C775.78,396.41 775.81,395.86 775.45,396.22 C775.09,396.58 773.74,395.74 772.45,394.36 C770.76,392.53 769.21,391.89 766.81,392.02 C764.99,392.12 762.97,392.16 762.32,392.10 C761.00,391.99 759.46,388.24 759.87,386.15 C760.02,385.41 759.73,385.05 759.25,385.35 C757.68,386.32 752.17,382.21 751.83,379.81 C751.57,378.02 750.77,377.43 748.25,377.19 C745.91,376.96 745.00,376.37 745.00,375.08 C745.00,372.60 740.52,368.00 738.11,368.00 C736.53,368.00 736.06,367.22 735.81,364.26 C735.57,361.41 735.02,360.45 733.50,360.22 C727.77,359.37 727.00,358.93 727.00,356.54 C727.00,353.40 725.57,352.57 723.58,354.56 C722.14,356.00 721.77,355.96 719.36,354.07 C717.92,352.93 716.15,352.00 715.44,352.00 C714.73,352.00 713.65,350.47 713.03,348.60 C712.07,345.69 711.50,345.23 708.98,345.41 C707.37,345.52 705.83,345.84 705.55,346.12 C705.33,346.33 716.44,355.79 731.16,368.05 C721.19,359.83 709.79,350.43 697.19,340.02 C700.23,342.41 702.28,343.91 702.58,343.93 C703.18,343.97 703.67,342.65 703.67,341.00 C703.67,339.35 703.27,338.00 702.77,338.00 C702.28,338.00 702.16,337.55 702.50,337.00 C703.10,336.04 701.25,335.60 697.90,335.92 C697.02,336.01 695.67,335.30 694.90,334.34 C693.99,333.22 693.93,332.88 694.75,333.37 C696.97,334.70 696.08,333.01 692.97,329.97 C691.30,328.33 689.07,327.00 688.02,327.00 C686.98,327.00 685.84,326.56 685.51,326.01 C685.16,325.46 685.54,325.27 686.38,325.59 C687.47,326.01 687.71,325.63 687.31,324.08 C687.01,322.94 686.34,322.00 685.82,322.00 C685.31,322.00 685.18,321.52 685.55,320.93 C685.91,320.34 685.25,320.45 684.07,321.18 C682.29,322.28 681.80,322.27 681.08,321.12 C680.61,320.36 679.77,320.02 679.23,320.36 C678.68,320.70 677.71,320.35 677.07,319.59 C676.44,318.82 674.84,317.93 673.53,317.60 C672.05,317.23 671.02,316.14 670.82,314.75 C670.57,312.97 669.77,312.45 667.00,312.25 L 663.50 312.00 L 667.35 315.25 C668.56,316.27 671.86,319.05 676.03,322.54 C673.26,320.25 670.44,317.92 667.58,315.56 C664.26,312.81 661.22,310.30 658.42,307.99 C660.64,309.66 662.20,310.68 662.50,310.60 C664.03,310.19 664.31,307.08 662.96,305.45 C662.30,304.65 660.46,304.00 658.88,304.00 C657.29,304.00 655.94,303.55 655.88,303.00 C655.81,302.45 655.64,301.55 655.50,301.00 C655.36,300.45 655.19,299.14 655.12,298.10 C655.03,296.64 654.32,296.25 652.07,296.40 C650.45,296.51 649.19,296.36 649.27,296.05 C649.35,295.75 648.83,293.81 648.13,291.74 C647.07,288.65 646.44,288.06 644.58,288.40 C641.94,288.88 639.97,287.88 639.62,285.90 C638.67,280.43 638.13,280.03 631.94,280.22 C628.67,280.32 626.02,280.65 626.03,280.95 C626.04,281.11 627.01,282.02 628.54,283.35 C627.00,282.09 625.94,281.24 625.01,280.50 C624.51,280.10 623.53,279.31 622.19,278.22 C623.44,278.75 624.01,277.67 623.80,275.00 C623.57,271.96 621.72,270.87 618.63,271.95 C616.94,272.55 617.00,272.85 619.49,275.80 C619.70,276.06 619.91,276.30 620.11,276.51 C618.77,275.41 617.21,274.14 615.51,272.74 C615.55,272.19 615.64,270.49 615.76,268.47 C616.05,263.48 614.62,262.06 611.18,263.90 C608.96,265.09 607.66,263.36 607.70,259.23 C607.73,257.03 606.97,256.60 601.54,255.78 C600.10,255.57 599.56,254.69 599.54,252.49 C599.50,249.84 599.04,249.39 595.47,248.50 C592.30,247.72 591.41,247.01 591.33,245.25 C591.27,244.01 591.17,242.60 591.11,242.11 C590.92,240.57 587.81,239.91 586.37,241.11 C585.34,241.96 585.00,241.95 585.00,241.07 C585.00,240.30 583.62,240.04 581.00,240.30 C577.73,240.63 577.00,240.39 577.00,238.98 C577.00,236.54 573.01,231.78 571.45,232.38 C569.93,232.96 567.95,230.88 567.58,228.30 C567.44,227.31 566.03,225.82 564.45,225.00 C560.34,222.86 559.44,221.80 559.59,219.27 C559.74,216.85 555.90,214.79 555.20,216.91 C554.46,219.12 550.46,213.41 550.88,210.75 C550.98,210.13 545.57,209.62 544.75,210.17 C544.61,210.26 543.38,209.72 542.00,208.95 C539.62,207.64 539.04,207.42 537.22,207.12 C536.79,207.06 535.94,205.67 535.32,204.04 C534.27,201.26 533.95,201.12 529.85,201.61 C527.46,201.89 525.05,202.57 524.50,203.12 C523.83,203.78 524.14,203.87 525.41,203.39 C526.75,202.88 527.11,203.01 526.61,203.83 C526.35,204.24 526.33,204.60 526.51,204.81 C521.53,203.14 518.41,202.73 512.50,202.87 C507.79,202.98 503.84,203.30 500.16,204.05 C505.89,202.37 504.94,201.54 496.82,200.63 C490.60,199.94 488.00,201.28 488.00,205.19 C488.00,205.27 488.00,205.34 488.00,205.42 C488.00,205.94 487.99,206.32 488.18,206.55 C488.62,207.09 490.08,206.78 494.99,205.46 C488.37,207.76 481.90,211.97 472.38,219.60 C477.39,215.44 481.73,211.94 482.75,211.26 C483.99,210.44 485.00,209.47 485.00,209.10 C485.00,208.18 473.03,208.32 472.88,209.25 C472.30,212.71 470.89,216.00 469.93,216.12 C469.42,216.19 468.55,216.36 468.00,216.50 C467.45,216.64 466.55,216.81 466.00,216.88 C465.45,216.94 465.00,218.33 465.00,219.95 C465.00,222.54 464.56,222.99 461.49,223.57 C457.51,224.31 456.67,225.27 456.48,229.22 C456.41,230.75 456.64,232.00 457.00,232.00 C457.18,232.00 458.66,230.88 460.91,229.09 C458.63,230.99 456.00,233.18 453.12,235.56 C453.98,234.67 454.49,233.93 454.08,233.89 C449.05,233.37 448.49,233.59 448.18,236.27 C448.01,237.77 448.17,239.00 448.54,239.00 C448.73,239.00 449.02,238.88 449.37,238.68 C439.61,246.76 427.85,256.49 417.50,265.01 C410.61,270.68 403.04,276.92 395.82,282.88 C396.93,281.86 397.56,280.90 397.28,280.61 C396.94,280.28 393.80,280.00 390.30,280.00 L 383.94 280.00 L 384.18 283.56 C384.45,287.58 383.24,288.75 379.05,288.50 C376.46,288.35 376.22,288.60 376.55,291.17 C376.74,292.72 376.45,294.00 375.89,294.00 C375.34,294.00 375.15,294.44 375.48,294.97 C376.13,296.03 372.25,297.32 369.94,296.81 C368.90,296.59 368.41,297.68 368.19,300.77 C367.99,303.56 367.50,304.81 366.79,304.37 C366.13,303.96 365.98,304.15 366.40,304.85 C367.33,306.34 365.74,306.34 364.24,304.84 C362.05,302.65 359.78,306.01 360.92,309.75 C361.24,310.77 363.85,309.16 371.56,302.93 C370.43,303.87 369.41,304.72 368.50,305.47 C365.15,308.25 361.73,311.09 358.27,313.96 C359.46,312.56 358.96,311.97 356.69,312.54 C352.86,313.50 350.64,313.84 347.69,313.92 C346.15,313.97 345.14,314.42 345.45,314.93 C345.77,315.43 345.54,316.93 344.94,318.24 C344.05,320.18 343.27,320.55 340.81,320.19 C337.28,319.67 335.65,321.48 337.14,324.26 C338.46,326.72 336.77,328.75 333.41,328.75 C330.87,328.75 328.61,330.23 328.38,332.05 C328.31,332.57 328.19,333.42 328.12,333.93 C328.01,334.81 325.75,335.86 323.50,336.07 C321.83,336.24 319.99,338.17 320.59,339.14 C320.90,339.64 319.54,341.66 317.57,343.63 C315.61,345.59 314.00,347.52 314.00,347.91 C314.00,348.30 313.16,349.53 312.13,350.63 C310.69,352.18 309.18,352.59 305.63,352.40 C303.08,352.27 301.00,352.60 301.00,353.14 C301.00,353.68 300.52,353.82 299.93,353.46 C299.35,353.10 298.62,353.74 298.32,354.89 C298.02,356.04 297.30,356.69 296.73,356.33 C296.14,355.97 295.99,356.17 296.38,356.81 C297.53,358.67 293.57,361.90 291.54,360.76 C289.36,359.54 288.24,360.67 287.83,364.50 C287.55,367.05 287.03,367.55 284.35,367.81 C281.34,368.10 279.25,370.92 280.86,372.53 C281.21,372.88 281.56,373.58 281.62,374.08 C281.69,374.59 281.81,375.23 281.88,375.50 C281.94,375.77 282.26,376.00 282.58,376.00 C282.93,376.00 295.36,365.99 304.44,358.51 C285.67,374.02 268.81,387.91 257.44,397.22 C260.22,394.83 262.00,393.15 262.00,392.88 C262.00,392.39 259.37,392.00 256.16,392.00 C250.86,392.00 250.21,392.24 249.15,394.56 C248.30,396.43 248.29,396.94 249.12,396.43 C249.94,395.92 249.97,396.23 249.24,397.54 C248.68,398.53 247.61,399.45 246.86,399.57 C241.71,400.40 240.21,401.66 240.79,404.68 C241.26,407.12 239.88,408.10 235.60,408.36 C234.28,408.43 233.38,408.81 233.61,409.18 C233.84,409.56 233.58,410.14 233.02,410.49 C232.46,410.84 232.00,411.98 232.00,413.02 C232.00,414.07 231.10,415.41 230.00,416.00 C228.90,416.59 228.00,416.76 228.00,416.38 C228.00,416.00 227.10,416.50 226.00,417.50 C224.90,418.50 224.00,420.37 224.00,421.65 C224.00,422.94 223.55,424.06 223.00,424.12 C221.54,424.31 220.75,424.51 218.32,425.34 C216.29,426.04 216.16,426.62 216.48,433.80 C216.66,438.03 216.87,441.73 216.93,442.00 C216.98,442.23 217.76,440.67 218.76,438.36 C216.08,446.55 216.03,459.71 216.01,509.05 C216.00,554.05 216.29,568.89 217.20,569.80 C218.92,571.52 254.31,571.49 258.49,569.90 C257.49,570.73 255.85,571.06 252.74,571.15 C249.86,571.23 248.74,571.49 250.25,571.72 C251.76,571.95 253.00,572.55 253.00,573.07 C253.00,573.58 253.87,574.00 254.94,574.00 C256.01,574.00 257.18,574.48 257.54,575.06 C257.89,575.64 259.38,575.98 260.84,575.81 C262.88,575.57 263.53,574.92 263.64,573.00 C263.72,571.62 263.00,569.77 262.06,568.87 C260.46,567.35 260.25,567.37 259.16,569.12 C259.10,569.22 259.03,569.32 258.96,569.41 C259.63,566.83 260.03,548.40 260.21,510.94 C260.39,475.99 260.49,462.22 261.02,456.21 L 261.94 455.15 C263.07,453.85 263.74,452.39 263.44,451.90 C263.13,451.40 263.58,451.00 264.43,451.00 C265.29,451.00 266.52,450.14 267.17,449.09 C268.09,447.63 269.13,447.31 271.66,447.72 C274.84,448.24 280.14,445.98 279.88,444.23 C279.52,441.90 280.39,440.83 283.75,439.48 C286.66,438.32 287.53,437.39 287.65,435.36 C287.84,432.21 289.29,431.14 292.55,431.77 C295.12,432.26 295.43,431.81 296.39,426.25 C296.70,424.46 296.55,423.00 296.07,423.00 C295.75,423.00 292.62,425.38 288.54,428.63 C291.40,426.24 294.42,423.72 297.55,421.11 C297.41,421.54 297.58,422.00 298.06,422.58 C298.89,423.57 299.72,423.63 301.54,422.80 C303.48,421.92 303.73,421.37 302.91,419.83 C302.20,418.50 301.53,418.19 300.11,418.99 C303.24,416.39 306.47,413.72 309.76,411.00 C310.32,410.54 310.88,410.07 311.44,409.61 C307.83,412.89 305.90,414.94 306.27,415.16 C307.75,416.08 310.20,414.70 314.22,410.69 C317.14,407.79 318.08,407.44 322.71,407.56 C327.90,407.68 327.92,407.67 327.59,404.79 C327.24,401.81 329.43,398.53 331.08,399.55 C331.59,399.86 332.00,399.64 332.00,399.06 C332.00,398.48 332.34,398.05 332.75,398.12 C334.91,398.46 335.61,397.74 335.56,395.25 C335.51,392.95 335.93,392.48 338.17,392.40 C341.64,392.27 343.42,390.30 343.83,386.16 C344.08,383.57 343.88,383.02 342.83,383.60 C343.80,382.78 344.74,382.00 345.64,381.25 C345.24,381.76 345.00,382.19 345.00,382.45 C345.00,384.12 348.15,384.04 350.12,382.33 C351.02,381.55 351.75,379.83 351.75,378.50 L 351.75 376.15 C355.43,373.07 357.76,371.10 358.28,370.63 C359.12,369.85 363.11,366.46 368.90,361.58 C364.34,365.62 363.53,366.91 364.37,367.53 C365.27,368.18 367.67,368.41 370.18,368.07 C373.81,367.59 374.61,367.05 375.47,364.50 C376.71,360.85 377.88,359.60 380.50,359.17 C381.60,358.98 382.95,358.35 383.50,357.77 C384.19,357.04 384.08,356.95 383.15,357.48 C382.18,358.03 382.25,357.54 383.40,355.79 C384.28,354.44 384.71,353.04 384.34,352.67 C383.73,352.06 386.31,351.56 388.30,351.90 C389.99,352.19 392.00,349.02 392.00,346.07 C392.00,344.38 392.34,342.95 392.75,342.88 C393.16,342.82 394.62,342.70 396.00,342.63 C398.82,342.48 399.96,341.35 399.98,338.68 C399.99,337.68 400.67,336.18 401.50,335.36 C402.33,334.53 403.00,334.28 403.00,334.79 C403.00,335.31 404.01,335.68 405.25,335.61 C407.05,335.52 407.56,334.82 407.82,332.10 L 408.15 328.70 L 401.82 334.02 C399.40,336.06 393.72,340.79 387.47,345.99 C388.78,344.89 390.11,343.78 391.45,342.66 C405.15,331.22 421.89,317.20 432.38,308.37 C420.58,318.31 411.33,326.73 411.65,327.24 C411.97,327.76 413.65,327.91 415.37,327.56 C417.09,327.21 419.29,326.84 420.25,326.74 C421.30,326.64 422.00,325.74 422.00,324.48 C422.00,323.00 423.32,321.76 426.59,320.17 C429.62,318.70 431.01,317.46 430.65,316.54 C430.00,314.83 432.27,312.84 436.39,311.50 C438.72,310.75 439.61,309.76 440.00,307.50 C440.39,305.24 441.13,304.41 443.01,304.15 C446.43,303.68 448.23,301.99 447.66,299.80 C447.10,297.69 449.47,294.88 451.28,295.51 C453.26,296.21 456.19,293.35 455.83,291.05 C455.55,289.28 451.99,291.90 433.32,307.58 C435.10,306.08 436.67,304.75 438.00,303.63 C446.45,296.50 454.13,290.04 461.03,284.26 C459.81,285.35 459.09,286.04 459.08,286.18 C459.03,286.55 459.79,287.01 460.75,287.20 C462.37,287.52 467.99,287.49 470.62,287.15 C471.25,287.06 471.59,285.71 471.39,284.02 C471.02,280.84 472.99,279.02 476.25,279.54 C478.27,279.87 479.27,278.57 479.64,275.13 C479.92,272.49 481.80,270.76 483.66,271.44 C485.31,272.05 487.65,268.88 487.45,266.30 C487.25,263.80 488.21,263.29 492.66,263.53 C495.63,263.70 495.84,263.48 496.19,259.85 C496.39,257.73 496.18,256.00 495.71,256.00 C495.49,256.00 493.59,257.41 490.78,259.63 C493.73,257.23 496.31,255.16 498.53,253.40 C498.56,253.63 498.74,253.84 499.06,254.04 C500.64,255.02 502.68,254.27 503.38,252.45 C503.96,250.95 503.33,250.31 502.04,250.66 C504.22,248.98 505.87,247.77 507.01,247.01 C507.00,247.03 507.00,247.06 507.00,247.08 C507.00,248.29 515.71,248.28 516.46,247.07 C516.52,246.96 516.55,246.85 516.53,246.72 C517.51,247.41 518.76,248.33 520.23,249.44 C520.03,249.70 520.00,250.44 520.00,251.77 C520.00,254.60 520.24,254.82 522.92,254.48 C526.17,254.07 528.42,256.02 528.62,259.41 C528.69,260.56 528.80,262.04 528.87,262.70 C528.94,263.37 530.21,263.82 531.73,263.70 C533.99,263.54 534.82,264.19 536.55,267.50 C537.70,269.70 539.17,271.56 539.82,271.62 C540.47,271.69 541.58,271.81 542.28,271.88 C542.99,271.94 543.66,273.22 543.79,274.71 C544.05,277.93 544.83,278.83 547.67,279.27 C550.99,279.77 552.70,281.72 552.51,284.79 C552.35,287.57 552.41,287.61 557.99,287.55 C563.34,287.50 563.79,287.69 566.57,291.20 C569.47,294.87 573.00,296.23 573.00,293.68 C573.00,293.23 571.83,291.90 570.06,290.24 C571.58,291.51 574.13,293.63 577.49,296.42 C577.12,296.15 576.86,296.00 576.77,296.00 C576.52,296.00 576.31,297.75 576.31,299.90 C576.31,303.27 576.59,303.75 578.40,303.51 C583.27,302.87 583.98,302.12 581.30,299.59 C590.70,307.41 604.33,318.76 619.05,331.03 C616.53,328.96 609.33,322.98 601.72,316.64 C593.04,309.41 585.62,303.59 585.22,303.69 C583.97,304.02 583.28,308.43 584.19,310.25 C584.78,311.42 586.24,312.00 588.59,312.00 C590.69,312.00 591.87,312.41 591.50,313.00 C591.16,313.55 591.28,314.00 591.77,314.00 C592.26,314.00 592.58,315.01 592.47,316.25 C592.19,319.46 593.48,320.65 596.96,320.41 C598.63,320.29 600.04,320.49 600.08,320.85 C600.13,321.21 600.28,322.53 600.42,323.79 C600.80,327.26 602.05,327.95 608.51,328.24 C614.13,328.49 614.51,328.66 615.48,331.50 C616.04,333.15 616.95,335.02 617.50,335.66 C618.25,336.52 618.97,336.40 620.33,335.18 C621.73,333.93 622.01,333.59 620.94,332.60 C623.11,334.41 625.30,336.23 627.50,338.07 C648.06,355.20 669.50,373.04 682.74,384.05 C668.78,372.47 654.44,360.55 646.37,353.81 C635.29,344.56 626.01,337.00 625.73,337.00 C625.46,337.00 625.02,338.14 624.75,339.54 C624.20,342.43 626.91,344.52 630.13,343.68 C631.77,343.25 632.02,343.66 631.82,346.55 L 631.81 346.69 C631.70,348.40 631.63,349.47 632.09,350.18 C632.87,351.38 635.13,351.60 641.18,352.25 C642.10,352.35 642.62,352.81 642.33,353.28 C642.04,353.75 641.24,353.92 640.55,353.66 C638.47,352.86 640.01,357.94 642.21,359.11 C643.29,359.69 644.41,359.92 644.70,359.63 C645.53,358.80 647.41,361.19 648.53,364.50 C649.45,367.23 649.99,367.52 654.48,367.77 C657.19,367.92 659.65,368.38 659.95,368.79 C660.25,369.20 661.78,370.10 663.35,370.79 C665.20,371.61 666.00,372.56 665.63,373.51 C665.25,374.51 665.93,375.17 667.79,375.57 C672.73,376.65 673.06,376.91 672.62,379.32 C672.07,382.34 672.88,383.42 676.00,383.84 C679.25,384.27 679.94,385.01 680.22,388.33 C680.38,390.37 681.09,391.21 682.97,391.60 C687.26,392.48 688.50,393.61 688.50,396.61 C688.50,399.12 688.89,399.52 691.50,399.64 C693.15,399.71 695.02,399.83 695.65,399.89 C696.29,399.95 697.27,401.35 697.85,403.00 C698.77,405.64 700.38,406.57 703.26,406.12 C704.93,405.85 712.95,410.28 712.40,411.17 C712.07,411.70 712.58,412.99 713.53,414.04 C715.00,415.66 716.31,415.87 719.83,415.07 C719.89,415.06 719.79,414.92 719.57,414.68 L 719.89 414.95 C722.22,416.90 725.36,419.52 728.82,422.39 C724.31,418.69 720.86,416.00 720.60,416.00 C719.61,416.00 719.92,419.99 721.08,422.14 C721.67,423.25 722.72,423.94 723.42,423.67 C725.09,423.03 727.28,424.44 727.68,426.42 C727.86,427.29 728.17,428.79 728.38,429.75 C728.59,430.71 729.38,431.33 730.13,431.12 C731.43,430.77 732.18,430.77 735.33,431.17 C736.15,431.27 736.49,432.21 736.23,433.60 C735.99,434.85 736.40,436.68 737.15,437.68 C738.42,439.40 739.45,439.88 743.00,440.45 C743.83,440.58 744.55,441.62 744.61,442.76 C744.67,443.89 744.99,445.54 745.33,446.41 C745.79,447.62 747.39,448.00 752.02,448.00 C759.36,448.00 759.24,447.52 750.00,439.94 C746.63,437.18 739.39,431.17 733.43,426.20 C738.05,430.03 742.86,433.99 746.89,437.30 C752.82,442.16 758.32,446.99 761.43,450.00 C761.39,450.00 761.35,450.00 761.31,450.00 C759.43,450.00 760.15,456.85 762.16,458.12 C763.37,458.89 764.25,459.17 764.77,458.98 C764.83,460.06 764.88,461.33 764.92,462.81 C764.82,462.69 764.72,462.58 764.61,462.47 C763.42,461.28 763.16,461.48 762.80,463.88 C762.58,465.42 762.62,467.31 762.90,468.09 C763.28,469.16 763.50,469.08 763.78,467.75 C763.97,466.83 764.52,466.06 765.01,466.00 C765.42,483.30 765.50,522.44 765.50,610.50 C765.50,686.01 765.23,750.34 764.87,765.12 C764.85,765.05 764.83,764.98 764.80,764.91 C764.40,763.69 761.53,765.92 760.84,767.99 C760.65,768.56 759.40,769.23 758.07,769.49 C756.74,769.74 755.19,770.41 754.62,770.98 C753.21,772.39 720.00,772.36 720.00,770.94 C720.00,770.35 718.61,770.05 716.81,770.25 C714.33,770.54 713.45,771.22 712.89,773.32 C712.48,774.86 712.56,775.77 713.07,775.46 C713.57,775.15 713.79,776.38 713.58,778.20 C713.32,780.32 713.77,782.17 714.84,783.37 C716.43,785.15 716.51,785.06 716.82,781.38 C716.98,779.57 717.45,777.62 717.94,776.66 C717.27,778.50 717.00,785.02 717.00,798.50 C717.00,810.89 717.23,817.39 717.79,819.80 C717.28,818.92 716.91,817.85 716.81,816.89 L 716.50 813.81 L 714.25 815.77 C712.12,817.63 711.22,821.89 712.67,823.33 C713.51,824.17 717.32,824.20 719.46,823.38 C720.90,822.83 720.86,822.59 719.11,821.36 C718.97,821.27 718.83,821.15 718.70,821.02 C723.44,822.29 757.96,822.38 768.93,821.20 C768.25,821.36 767.57,821.62 767.12,821.90 C766.26,822.45 768.50,822.81 773.12,822.86 C780.83,822.94 783.68,821.83 783.67,818.75 C783.67,817.79 783.61,817.00 783.55,817.00 C783.48,817.00 780.87,817.90 777.74,819.00 C774.77,820.04 771.59,820.91 770.44,821.01 C770.72,820.96 770.98,820.92 771.20,820.87 ZM 503.98 822.47 C505.38,824.16 507.78,824.43 509.85,823.12 C510.84,822.49 510.51,822.09 508.60,821.61 C508.41,821.57 508.23,821.51 508.06,821.45 C510.86,821.68 520.22,821.88 530.84,821.92 L 551.72 821.99 C551.20,822.31 551.36,822.61 552.12,823.09 C552.88,823.58 553.55,823.98 553.60,823.98 C553.66,823.99 555.12,823.51 556.85,822.90 C559.14,822.10 560.00,821.18 560.00,819.52 C560.00,816.81 561.59,815.32 564.98,814.85 C567.32,814.52 567.48,814.10 567.74,807.50 L 568.03 800.50 C569.48,798.23 571.07,795.73 572.83,792.96 C571.62,794.95 570.68,796.58 570.16,797.60 C569.19,799.51 569.32,799.66 571.65,799.22 C573.37,798.89 574.67,797.64 575.59,795.43 C576.51,793.24 578.06,791.74 580.23,790.95 C583.20,789.87 583.53,789.34 583.81,785.13 C584.35,777.09 584.46,776.70 586.34,776.42 C587.35,776.27 588.42,775.91 588.72,775.61 C589.01,775.32 590.49,775.72 592.00,776.50 C593.51,777.28 594.97,777.69 595.25,777.41 C595.95,776.72 601.13,785.70 600.92,787.25 C600.56,790.09 601.17,790.90 604.50,792.00 C607.63,793.03 608.01,793.55 608.08,796.83 C608.23,803.28 608.64,805.06 610.34,806.77 C611.58,808.01 612.00,808.09 612.00,807.08 C612.00,806.34 612.90,806.87 614.00,808.27 C615.10,809.67 616.00,811.74 616.00,812.87 C616.00,814.77 618.85,817.20 620.71,816.90 C623.91,816.36 625.01,817.11 624.42,819.44 C624.09,820.79 624.11,822.36 624.46,822.94 C625.27,824.24 629.97,824.30 631.97,823.04 C633.15,822.30 632.91,821.92 630.78,821.11 C630.76,821.10 630.74,821.09 630.72,821.08 C632.33,821.63 642.87,821.92 655.35,821.77 C674.79,821.53 677.51,821.30 677.78,819.88 C677.96,818.99 675.27,814.29 665.08,798.52 C668.59,803.90 671.33,808.00 671.44,808.00 C671.57,808.00 671.68,807.44 671.71,806.75 C671.73,806.06 671.86,805.05 671.99,804.50 C672.60,802.00 671.92,798.93 670.90,799.56 C670.11,800.05 670.09,799.69 670.83,798.32 C671.43,797.19 671.50,795.81 671.00,794.99 C670.52,794.22 670.32,793.30 670.54,792.94 C670.76,792.57 669.95,792.35 668.72,792.45 C665.01,792.74 663.00,791.18 663.00,787.98 C663.00,785.69 662.46,784.90 660.54,784.42 C659.19,784.08 657.62,783.96 657.05,784.15 C656.50,784.33 659.14,789.26 663.00,795.29 C656.19,784.80 646.50,770.02 632.87,749.32 C636.53,754.79 639.47,759.00 639.64,759.00 C639.82,759.00 639.86,756.08 639.74,752.50 C639.61,748.92 639.14,746.00 638.69,746.00 C638.25,746.00 638.16,745.55 638.50,745.00 C638.84,744.45 638.53,743.95 637.81,743.89 C637.09,743.84 635.60,743.72 634.50,743.64 C633.40,743.56 632.15,743.95 631.72,744.50 C631.29,745.05 631.21,744.34 631.53,742.93 C632.17,740.17 631.34,739.18 626.76,737.22 C625.32,736.61 624.95,736.79 626.31,739.19 C625.33,737.64 624.41,736.17 623.57,734.81 C623.66,734.03 623.68,731.04 623.62,727.50 L 623.50 720.00 L 626.50 719.98 C630.64,719.96 632.47,718.64 631.52,716.35 C630.80,714.63 630.78,705.90 631.50,705.17 C631.83,704.83 634.74,704.21 636.59,704.08 C637.19,704.03 638.73,701.97 640.00,699.50 C642.06,695.50 643.54,694.42 646.32,694.91 C646.78,694.99 646.86,694.59 646.52,694.02 C646.17,693.46 646.35,693.00 646.92,693.00 C647.52,693.00 647.92,690.92 647.86,688.19 C647.80,685.54 648.08,682.28 648.49,680.94 C649.18,678.65 648.85,678.48 645.89,682.60 L 646.40 681.83 C666.02,652.42 672.76,641.75 673.49,638.78 C673.28,641.22 670.74,645.40 661.61,659.00 C651.42,674.18 649.49,677.62 650.85,678.17 C651.98,678.63 653.45,677.80 655.50,675.52 C657.15,673.70 659.56,671.89 660.85,671.50 C662.77,670.93 663.12,670.27 662.77,667.86 C662.53,666.24 662.69,664.69 663.12,664.42 C663.56,664.16 663.68,663.32 663.39,662.57 C663.10,661.82 663.30,660.93 663.84,660.60 C664.37,660.27 664.58,659.10 664.29,658.00 C663.96,656.75 664.28,655.96 665.13,655.88 C665.89,655.82 666.95,655.66 667.50,655.54 C668.05,655.41 669.14,655.24 669.92,655.15 C670.70,655.07 671.05,654.72 670.71,654.37 C669.82,653.48 672.38,648.86 675.07,646.50 C676.43,645.30 677.01,645.10 676.52,646.00 C676.06,646.83 676.57,646.62 677.63,645.54 C679.45,643.71 680.33,640.00 678.95,640.00 C678.60,640.00 678.40,638.65 678.50,636.99 C678.73,633.19 677.10,631.72 674.65,633.51 C673.30,634.50 672.97,635.61 673.42,637.68 C673.43,637.74 673.45,637.81 673.46,637.87 C672.81,636.05 671.49,636.00 649.43,636.00 C632.93,636.00 627.91,636.08 625.66,636.89 C626.93,636.09 628.09,636.00 629.70,636.00 C635.72,636.00 632.00,633.67 624.90,632.99 C619.62,632.49 618.65,632.67 617.46,634.36 C616.48,635.76 616.38,636.84 617.10,638.19 C617.84,639.57 617.64,641.14 616.36,644.04 C614.84,647.49 613.71,648.65 612.73,647.75 C612.08,647.16 608.02,651.76 607.19,654.03 C606.52,655.84 605.52,656.51 603.47,656.54 C601.32,656.56 600.62,657.08 600.50,658.74 C600.41,659.93 600.71,660.68 601.17,660.39 C601.63,660.11 602.00,660.36 602.00,660.94 C602.00,661.52 601.44,662.01 600.75,662.02 C599.89,662.03 599.96,662.32 600.95,662.95 C602.48,663.91 601.83,665.90 598.55,670.30 C597.07,672.28 589.93,672.70 583.89,671.16 C583.55,671.07 583.35,669.99 583.44,668.75 C583.66,665.88 582.26,664.00 579.91,664.00 C577.41,664.00 575.95,660.91 575.51,654.70 C575.32,651.84 575.12,649.16 575.08,648.75 C575.03,648.34 574.10,648.00 573.00,648.00 C571.90,648.00 569.20,646.15 567.00,643.88 C564.80,641.61 563.00,640.14 563.00,640.60 C563.00,642.48 559.98,636.98 559.79,634.77 C559.54,631.76 556.55,631.41 553.71,634.05 L 551.62 636.00 L 554.06 636.02 C555.40,636.02 556.98,636.36 557.57,636.77 C556.34,635.92 516.50,635.77 510.75,636.54 C511.24,635.90 510.78,634.64 509.39,633.25 C507.05,630.90 504.79,632.79 504.30,637.51 C504.08,639.67 503.72,641.62 503.49,641.84 C502.48,642.85 506.23,648.00 507.97,648.00 C510.79,648.00 511.75,649.93 512.46,657.00 C512.66,658.92 512.91,660.72 513.03,661.00 C513.14,661.28 513.17,661.87 513.09,662.32 C513.01,662.78 513.41,662.86 513.98,662.52 C514.54,662.17 515.00,662.39 515.00,663.00 C515.00,663.61 515.42,663.86 515.94,663.54 C517.02,662.87 518.36,664.22 520.91,668.53 C522.23,670.75 523.54,671.62 525.88,671.79 L 529.06 672.04 L 518.53 656.34 C513.86,649.37 510.92,644.73 509.40,641.75 C511.65,645.65 516.35,653.03 521.75,661.07 C525.97,667.35 531.83,676.08 537.61,684.68 C533.48,678.75 529.32,673.00 528.99,673.00 C528.64,673.00 528.44,674.46 528.54,676.25 C528.66,678.44 529.90,680.79 532.36,683.45 C534.85,686.14 536.00,688.33 536.00,690.37 C536.00,693.74 538.53,697.12 540.49,696.36 C541.21,696.09 542.09,696.34 542.46,696.93 C543.13,698.01 546.00,698.45 546.00,697.47 C546.00,697.34 545.72,696.83 545.23,696.04 L 550.34 703.65 L 551.77 705.78 C548.09,700.55 546.12,698.40 545.35,698.70 C544.48,699.03 544.14,699.91 544.52,700.88 C544.86,701.77 545.23,702.95 545.32,703.50 C545.42,704.04 546.17,705.09 547.00,705.82 C547.83,706.55 547.94,706.86 547.25,706.52 C546.39,706.08 546.02,706.76 546.08,708.69 C546.12,710.24 546.38,710.97 546.64,710.31 C547.28,708.74 551.99,712.77 552.03,714.93 C552.08,717.15 554.68,720.32 555.85,719.59 C557.31,718.69 560.00,721.80 560.00,724.37 C560.00,727.01 558.25,729.03 556.54,728.38 C554.52,727.60 552.67,730.61 553.89,732.70 C554.47,733.69 554.95,734.13 554.97,733.68 C554.99,733.23 555.71,733.56 556.57,734.43 C557.44,735.29 558.30,736.00 558.49,736.00 C558.55,736.00 558.77,735.74 559.10,735.29 L 550.94 748.09 C556.46,739.11 557.26,736.98 556.38,736.04 C555.23,734.82 554.81,734.80 553.76,735.94 C552.76,737.01 552.76,737.15 553.75,736.59 C554.44,736.20 555.00,736.36 555.00,736.94 C555.00,737.52 554.55,738.00 554.00,738.00 C553.45,738.00 553.00,739.12 553.00,740.48 C553.00,742.38 552.36,743.10 550.25,743.54 C545.92,744.45 544.51,745.53 544.32,748.11 C543.98,752.72 543.04,755.33 540.88,757.63 C539.69,758.90 538.35,759.72 537.92,759.45 C537.48,759.18 536.82,760.99 536.45,763.48 C535.93,766.92 535.34,768.00 533.97,768.00 C531.24,768.00 528.94,769.10 529.56,770.10 C529.87,770.60 529.64,771.00 529.06,771.00 C528.44,771.00 528.00,773.30 528.00,776.50 C528.00,779.53 528.34,781.99 528.75,781.98 C528.99,781.97 531.38,778.54 534.88,773.25 C529.75,781.28 524.73,789.12 520.89,795.09 C526.81,785.76 527.22,784.41 525.64,784.15 C524.32,783.93 522.97,784.62 522.02,786.01 C519.15,790.19 515.98,793.11 514.98,792.49 C513.64,791.66 512.46,796.29 511.67,805.50 C511.46,807.98 510.01,809.11 507.89,808.45 C505.63,807.75 504.07,810.03 504.45,813.48 C504.63,815.09 504.31,817.43 503.74,818.68 C502.98,820.33 503.05,821.35 503.98,822.47 ZM 422.86 822.89 C426.76,825.36 433.33,821.98 432.30,818.04 C431.54,815.15 430.37,815.51 429.15,819.00 L 429.14 819.02 C429.72,816.07 430.02,799.09 429.96,773.28 L 429.87 735.15 C429.89,735.40 429.91,735.63 429.92,735.81 C430.07,738.38 432.00,735.83 432.00,733.06 C432.00,730.13 434.21,727.54 436.74,727.52 C437.55,727.51 438.95,725.94 439.85,724.04 C440.88,721.88 442.44,720.36 444.00,720.00 C446.82,719.34 447.74,716.25 446.06,713.10 C445.24,711.59 445.32,710.91 446.36,710.30 C447.17,709.83 447.47,708.77 447.09,707.70 C446.72,706.68 446.11,706.85 444.55,708.86 C445.98,706.83 447.81,704.22 449.91,701.23 C448.75,702.95 448.00,704.13 448.00,704.29 C448.00,705.24 452.47,703.74 454.25,702.20 C455.21,701.37 456.00,699.71 456.00,698.51 C456.00,697.31 456.56,696.28 457.25,696.23 C462.89,695.74 463.80,694.65 463.50,688.76 C463.35,685.87 463.18,683.31 463.12,683.07 C463.06,682.86 460.75,685.94 457.95,689.81 C460.34,686.41 462.84,682.85 465.34,679.31 L 465.50 679.08 C465.28,679.68 465.58,680.00 466.37,680.00 C468.86,680.00 471.00,678.85 471.00,677.50 C471.00,675.21 474.57,671.75 477.06,671.62 C478.95,671.53 479.51,670.94 479.55,668.97 C479.62,665.59 480.73,664.00 483.00,664.00 C485.64,664.00 487.80,660.50 487.38,656.90 C486.74,651.42 486.09,650.40 481.54,656.30 C484.78,651.69 487.17,648.28 488.11,646.93 C488.06,647.07 488.02,647.17 488.02,647.25 C487.98,648.65 492.33,648.01 494.17,646.35 C495.54,645.11 496.00,643.24 496.00,638.95 C496.00,632.31 494.94,631.40 490.01,633.79 L 486.69 635.40 L 489.35 636.28 C489.52,636.34 489.69,636.41 489.85,636.48 C484.55,635.64 451.42,635.95 447.33,636.90 C448.49,635.89 447.99,634.07 446.02,633.01 C444.45,632.17 443.68,632.36 442.27,633.91 C438.96,637.55 438.12,638.79 438.61,639.28 C438.88,639.55 437.80,640.22 436.20,640.78 C433.43,641.75 433.31,642.04 433.57,647.15 C433.72,650.09 433.88,652.61 433.92,652.75 C434.21,653.69 435.55,652.10 440.04,645.44 C442.84,641.28 445.78,637.64 446.57,637.33 C446.60,637.33 446.62,637.31 446.65,637.30 C444.97,639.02 438.86,647.44 431.70,657.88 C431.92,657.54 432.14,657.20 432.35,656.87 C433.93,654.41 433.97,654.07 432.60,654.60 C431.72,654.94 431.00,655.56 431.00,655.98 C431.00,656.40 429.54,656.69 427.77,656.62 C424.92,656.51 424.47,656.86 424.01,659.49 C423.66,661.49 422.55,662.93 420.68,663.83 C417.38,665.41 417.24,665.74 416.68,673.25 C416.45,676.41 416.54,678.98 416.88,678.96 C417.08,678.95 418.51,677.08 420.52,674.28 C418.64,677.02 416.93,679.47 415.50,681.51 C415.57,681.04 415.17,680.94 414.32,680.89 C407.03,680.45 405.57,680.01 403.34,677.61 C402.01,676.17 401.19,675.00 401.53,675.00 C401.87,675.00 401.47,674.33 400.64,673.50 C399.76,672.61 399.30,670.78 399.52,669.01 C399.97,665.52 398.07,664.08 393.22,664.21 L 390.22 664.30 C388.03,661.20 385.18,657.09 382.27,652.80 C385.00,656.70 387.28,659.61 387.90,659.97 C388.90,660.52 389.74,660.43 390.18,659.71 C391.13,658.18 389.47,656.33 386.46,655.58 C385.10,655.24 383.96,654.19 383.90,653.23 C383.28,642.37 382.60,640.62 378.67,639.63 C377.24,639.27 375.95,637.75 375.12,635.44 C373.86,631.96 373.66,631.84 370.15,632.49 C368.14,632.86 366.35,633.58 366.17,634.08 C365.98,634.59 364.75,635.00 363.42,635.00 C362.09,635.00 361.00,635.45 361.00,636.00 C361.00,636.34 361.90,636.63 363.27,636.82 C352.17,635.96 336.22,635.87 330.64,636.64 C327.38,637.08 326.26,637.54 326.04,638.70 C325.99,637.60 326.46,637.00 327.50,637.00 C329.57,637.00 329.39,634.27 327.25,633.17 C325.41,632.21 322.28,632.39 321.16,633.51 C320.07,634.60 320.11,645.41 321.22,646.75 C321.78,647.44 323.01,648.00 323.95,648.00 C324.89,648.00 326.28,649.24 327.04,650.75 C327.80,652.26 328.83,654.06 329.33,654.75 C329.83,655.44 331.57,656.00 333.18,656.00 C333.34,656.00 333.49,656.00 333.63,656.00 C334.55,656.01 335.16,656.01 335.36,655.73 C335.75,655.17 334.59,653.51 331.16,648.60 C330.88,648.21 330.59,647.80 330.29,647.36 C328.04,644.15 326.66,641.51 326.21,639.70 C328.00,643.10 341.25,663.02 354.89,683.10 C345.17,669.19 337.73,658.96 337.34,659.04 C336.88,659.13 336.69,659.72 336.93,660.35 C337.17,660.98 337.39,663.75 337.43,666.50 C337.50,671.15 337.68,671.50 340.00,671.50 C342.85,671.50 344.36,673.37 344.44,677.00 C344.49,679.07 345.05,679.55 347.75,679.81 C351.13,680.14 351.66,681.02 352.36,687.52 C352.82,691.82 354.76,695.00 356.93,695.00 C358.96,695.00 360.00,696.87 360.00,700.52 C360.00,701.82 360.52,703.20 361.15,703.60 C361.82,704.00 362.04,703.87 361.68,703.29 C361.33,702.72 362.61,702.97 364.52,703.84 C367.76,705.31 368.76,707.39 368.10,711.29 C368.03,711.73 368.47,713.02 369.09,714.16 C369.94,715.75 369.92,716.07 369.00,715.50 C368.07,714.93 368.07,715.25 368.97,716.94 C369.61,718.13 370.66,719.27 371.32,719.46 C371.97,719.65 373.40,720.15 374.50,720.56 C375.60,720.98 376.86,721.24 377.29,721.14 C377.73,721.05 377.65,721.79 377.11,722.79 C375.75,725.34 377.06,726.93 380.26,726.58 C383.55,726.21 384.58,727.41 384.85,731.89 C384.96,733.75 385.29,735.66 385.59,736.14 C386.78,738.07 388.00,736.80 388.00,733.63 C388.00,731.78 387.10,729.13 386.00,727.73 C385.80,727.47 385.27,726.74 384.46,725.60 L 388.00 730.29 L 388.00 775.09 C388.00,816.71 388.12,819.97 389.75,820.92 C390.76,821.51 399.23,821.95 409.77,821.97 L 425.57 822.00 C425.33,822.01 425.08,822.01 424.80,822.02 C422.57,822.03 421.94,822.31 422.86,822.89 ZM 326.90 820.62 C327.70,819.66 327.96,812.67 327.77,797.37 L 327.50 775.50 L 297.50 775.00 C285.44,774.80 277.86,774.66 272.93,774.30 C273.06,774.14 273.17,773.96 273.24,773.75 C273.66,772.63 269.81,767.94 268.52,767.98 C263.10,768.17 263.00,768.10 263.00,764.11 C263.00,761.57 262.48,760.01 261.50,759.64 C261.23,759.53 261.00,759.49 260.81,759.52 C260.45,750.29 260.24,733.27 260.00,702.50 L 259.50 638.03 C259.54,638.07 259.57,638.11 259.59,638.15 C260.38,639.42 263.00,636.55 263.00,634.42 C263.00,631.81 256.47,631.66 254.84,634.23 C253.50,636.34 253.88,637.00 256.44,637.00 C257.24,637.00 258.07,637.18 258.69,637.47 L 247.50 637.00 C240.90,636.72 231.23,636.72 226.00,637.00 L 216.50 637.50 L 216.50 784.50 L 218.85 791.30 C218.88,791.41 218.92,791.51 218.96,791.61 C217.77,789.43 216.57,790.27 216.27,794.08 C216.12,795.96 215.80,798.05 215.54,798.72 C215.29,799.39 215.55,800.22 216.11,800.57 C216.68,800.92 216.91,801.78 216.64,802.49 C215.91,804.40 218.82,808.00 221.11,808.00 C222.45,808.00 223.59,809.16 224.58,811.54 C225.39,813.49 226.41,814.87 226.83,814.61 C227.25,814.35 228.13,814.46 228.77,814.86 C230.43,815.89 237.01,816.22 236.94,815.28 C236.91,814.85 234.95,812.92 232.59,811.00 C227.07,806.51 221.42,798.93 219.88,793.99 C224.29,804.43 232.78,812.93 243.22,817.63 C240.69,816.54 240.13,817.12 240.33,819.75 C240.53,822.39 240.78,822.51 246.42,822.73 C249.65,822.86 252.48,823.15 252.70,823.37 C253.35,824.02 257.00,822.85 257.00,822.00 C257.00,821.70 255.92,821.27 254.36,820.91 C268.66,822.43 325.45,822.36 326.90,820.62 ZM 400.19 275.97 C400.34,277.82 400.80,278.60 401.46,278.10 C404.49,275.77 444.73,242.57 446.00,241.35 C447.31,240.09 447.01,239.94 443.50,240.12 C441.30,240.24 438.71,240.73 437.75,241.20 C436.79,241.68 436.00,241.70 436.00,241.25 C436.00,240.80 435.13,240.43 434.07,240.43 C433.01,240.43 432.16,240.67 432.19,240.96 C432.61,245.75 431.13,248.06 427.71,247.95 C426.13,247.90 424.15,250.77 423.83,253.60 C423.54,256.15 423.15,256.46 420.60,256.19 C417.36,255.84 416.04,257.24 416.02,261.03 C416.00,263.06 415.46,263.61 413.29,263.79 C409.85,264.07 408.96,265.00 408.68,268.59 C408.53,270.61 407.86,271.57 406.48,271.78 C400.39,272.70 399.97,272.98 400.19,275.97 ZM 647.63 771.75 C651.65,777.94 655.22,783.00 655.57,783.00 C655.91,783.00 655.91,781.09 655.57,778.75 C655.23,776.41 654.85,773.15 654.73,771.50 C654.53,768.89 654.07,768.46 651.21,768.18 C648.48,767.92 647.82,767.37 647.34,764.96 C646.64,761.46 644.79,759.73 642.21,760.17 C640.58,760.45 641.36,762.11 647.63,771.75 ZM 264.00 388.11 C264.00,389.07 264.67,389.73 265.51,389.60 C267.20,389.35 281.00,378.15 281.00,377.03 C281.00,376.64 278.98,376.34 276.50,376.37 C272.31,376.42 272.01,376.60 272.18,378.96 C272.36,381.37 270.53,386.00 269.41,386.00 C269.12,386.00 269.16,385.55 269.50,385.00 C270.38,383.58 266.65,383.75 265.20,385.20 C264.54,385.86 264.00,387.17 264.00,388.11 ZM 321.13 775.20 C324.63,775.36 327.84,775.36 328.25,775.19 C329.11,774.84 326.49,769.42 325.01,768.50 C324.45,768.16 324.00,768.39 324.00,769.00 C324.00,769.61 323.60,769.87 323.10,769.56 C322.61,769.26 321.95,769.68 321.64,770.51 C321.24,771.53 319.62,772.00 316.46,772.00 C312.44,772.00 312.04,772.18 313.31,773.45 C314.19,774.33 317.25,775.02 321.13,775.20 ZM 675.44 814.09 C677.81,817.67 680.00,818.53 680.00,815.88 C680.00,815.33 679.55,815.16 678.99,815.50 C678.39,815.87 678.45,815.11 679.12,813.63 C680.65,810.29 679.62,808.00 676.59,808.00 C672.86,808.00 672.54,809.70 675.44,814.09 ZM 384.75 823.42 C385.65,824.31 388.33,824.08 390.00,822.97 C391.31,822.09 391.28,821.83 389.75,820.93 C388.61,820.26 388.00,818.67 388.00,816.38 C388.00,813.27 387.83,813.03 386.52,814.34 C384.99,815.86 383.72,822.39 384.75,823.42 ZM 216.87 575.75 C217.12,576.24 220.86,575.99 222.45,575.38 C223.33,575.04 224.51,573.92 225.06,572.88 C225.99,571.16 225.66,571.00 221.17,571.00 C216.69,571.00 216.29,571.19 216.51,573.25 C216.64,574.49 216.80,575.61 216.87,575.75 ZM 215.68 636.57 C216.16,637.86 222.22,637.15 223.16,635.70 C224.17,634.13 221.29,631.83 218.76,632.19 C216.46,632.51 214.96,634.64 215.68,636.57 ZM 321.86 822.89 C322.60,823.36 324.29,823.75 325.61,823.75 C327.36,823.75 328.00,823.20 328.00,821.67 C328.00,820.06 327.73,819.87 326.80,820.80 C326.14,821.46 324.45,822.01 323.05,822.02 C321.24,822.03 320.89,822.28 321.86,822.89 ZM 529.75 686.75 C530.37,688.42 531.66,688.33 532.33,686.57 C532.63,685.79 532.28,684.64 531.54,684.03 C530.04,682.79 528.92,684.49 529.75,686.75 ZM 306.49 356.81 C309.42,354.39 311.80,352.38 313.00,351.32 C315.13,349.42 335.81,332.40 347.63,322.78 C333.86,334.19 319.74,345.87 306.49,356.81 ZM 580.75 780.45 C582.65,777.43 584.69,774.20 586.87,770.75 C588.86,767.59 590.95,765.02 591.50,765.05 C591.86,765.07 594.11,768.07 597.17,772.55 C594.11,768.08 591.86,765.07 591.50,765.06 C591.04,765.04 585.91,772.53 580.75,780.45 ZM 441.05 713.87 C438.72,717.29 435.59,721.81 433.55,724.74 C431.87,727.12 430.48,729.59 429.86,731.20 L 429.85 729.86 L 433.68 724.41 C435.56,721.73 438.70,717.24 441.05,713.87 ZM 378.46 647.18 L 371.90 637.50 L 365.39 636.98 C365.70,636.99 366.03,637.00 366.36,637.00 L 371.73 637.00 ZM 558.11 280.34 C549.93,273.63 537.97,263.74 529.92,257.05 C532.80,259.37 535.92,261.91 539.11,264.56 C545.64,269.99 552.50,275.69 558.11,280.34 ZM 261.45 768.11 C262.50,770.27 264.06,772.10 265.86,773.14 C263.84,772.39 263.02,771.29 261.90,769.60 C261.73,769.35 261.58,768.89 261.45,768.11 ZM 402.33 682.22 C403.09,683.36 403.78,684.38 404.42,685.29 C401.10,680.73 397.09,674.80 396.19,672.89 C397.39,674.74 399.82,678.44 402.33,682.22 ZM 221.15 432.91 C225.03,424.92 229.87,419.83 244.72,407.69 C229.66,420.22 226.07,424.13 222.47,430.52 C222.00,431.36 221.56,432.15 221.15,432.91 ZM 555.56 819.25 C556.82,817.80 560.36,812.49 568.03,800.50 L 564.88 805.50 C559.50,814.03 556.66,818.22 554.77,820.16 ZM 777.60 406.16 C790.67,416.71 797.21,423.15 801.12,429.66 C796.90,422.87 790.18,416.40 777.60,406.16 ZM 527.07 205.00 C528.34,205.03 530.56,205.94 533.40,207.52 C531.62,206.68 529.79,205.96 527.66,205.21 C527.46,205.14 527.26,205.07 527.07,205.00 ZM 491.87 638.75 C492.19,640.16 491.57,641.99 490.00,644.00 L 489.98 644.02 C491.27,641.79 491.90,640.03 491.87,638.75 ZM 250.31 820.15 C248.17,819.68 245.95,818.99 244.81,818.40 C244.34,818.16 243.92,817.95 243.53,817.77 C245.71,818.74 247.98,819.54 250.31,820.15 ZM 621.87 640.80 C619.62,643.94 616.07,649.17 612.48,654.67 C616.91,647.88 619.76,643.56 621.87,640.80 ZM 562.36 229.09 C574.50,238.98 582.98,245.93 591.19,252.70 C584.23,246.98 577.77,241.68 574.48,239.00 C571.38,236.48 566.81,232.74 562.36,229.09 ZM 509.37 637.00 C508.81,637.33 508.36,637.80 508.15,638.28 C508.09,637.41 508.53,637.04 509.37,637.00 ZM 564.01 727.58 L 565.13 725.76 L 560.20 718.33 L 565.18 725.75 ZM 764.77 767.86 C764.75,768.09 764.74,768.23 764.72,768.28 C764.46,769.22 763.68,770.39 762.71,771.40 C763.70,770.34 764.42,769.09 764.77,767.86 ZM 719.17 775.79 C721.32,775.21 726.93,775.00 738.37,775.00 C727.38,775.00 721.44,775.24 719.17,775.79 ZM 802.07 798.12 C800.94,800.15 799.64,802.07 798.11,803.95 C799.55,802.12 800.88,800.17 802.07,798.12 ZM 407.81 689.74 C408.51,690.49 409.02,690.88 409.37,690.93 C409.28,690.97 409.18,691.00 409.08,691.00 C408.93,691.00 408.47,690.53 407.81,689.74 ZM 764.36 454.10 C764.14,453.45 763.94,452.90 763.74,452.43 C763.86,452.58 763.94,452.70 764.00,452.80 C764.13,453.03 764.25,453.43 764.36,454.10 ZM 262.51 450.90 C262.22,451.38 261.93,451.88 261.67,452.39 C261.88,451.78 262.13,451.39 262.43,451.00 C262.45,450.97 262.48,450.94 262.51,450.90 ZM 628.75 819.56 C626.83,817.61 624.12,813.92 620.47,808.30 C624.03,813.79 626.82,817.58 628.75,819.56 ZM 508.47 814.89 C510.01,812.27 512.16,808.75 514.62,804.88 C512.15,808.79 510.00,812.29 508.47,814.89 ZM 410.79 687.83 C410.82,687.82 410.87,687.79 410.92,687.76 C410.87,687.80 410.84,687.83 410.82,687.83 C410.37,688.02 410.00,688.80 410.00,689.58 C410.00,688.80 410.35,688.02 410.79,687.83 ZM 506.02 819.76 C506.01,819.70 506.00,819.64 506.00,819.58 C506.00,819.58 506.00,819.57 506.00,819.57 C506.00,819.63 506.01,819.69 506.02,819.76 ZM 513.71 245.27 C513.58,245.26 513.45,245.25 513.32,245.24 C513.45,245.25 513.59,245.25 513.71,245.27 Z" fill="rgb(254,254,254)"/>
<path d="M 252.70 823.37 C252.48,823.15 249.65,822.86 246.42,822.73 C240.78,822.51 240.53,822.39 240.33,819.75 C240.09,816.64 240.92,816.39 244.81,818.40 C246.31,819.17 249.66,820.13 252.26,820.52 C254.87,820.91 257.00,821.57 257.00,822.00 C257.00,822.85 253.35,824.02 252.70,823.37 ZM 321.86 822.89 C320.89,822.28 321.24,822.03 323.05,822.02 C324.45,822.01 326.14,821.46 326.80,820.80 C327.73,819.87 328.00,820.06 328.00,821.67 C328.00,823.20 327.36,823.75 325.61,823.75 C324.29,823.75 322.60,823.36 321.86,822.89 ZM 384.75 823.42 C383.72,822.39 384.99,815.86 386.52,814.34 C387.83,813.03 388.00,813.27 388.00,816.38 C388.00,818.67 388.61,820.26 389.75,820.93 C391.28,821.83 391.31,822.09 390.00,822.97 C388.33,824.08 385.65,824.31 384.75,823.42 ZM 422.86 822.89 C421.94,822.31 422.57,822.03 424.80,822.02 C427.57,822.00 428.27,821.51 429.15,819.00 C430.37,815.51 431.54,815.15 432.30,818.04 C433.33,821.98 426.76,825.36 422.86,822.89 ZM 503.98 822.47 C503.05,821.35 502.98,820.33 503.74,818.68 C504.31,817.43 504.63,815.09 504.45,813.48 C504.07,810.03 505.63,807.75 507.89,808.45 C510.01,809.11 511.46,807.98 511.67,805.50 C512.46,796.29 513.64,791.66 514.98,792.49 C515.98,793.11 519.15,790.19 522.02,786.01 C522.97,784.62 524.32,783.93 525.64,784.15 C527.52,784.46 526.58,786.31 516.87,801.35 C510.89,810.62 506.00,818.83 506.00,819.58 C506.00,820.34 507.17,821.26 508.60,821.61 C510.51,822.09 510.84,822.49 509.85,823.12 C507.78,824.43 505.38,824.16 503.98,822.47 ZM 552.12 823.09 C551.03,822.40 551.17,822.08 552.80,821.56 C554.74,820.95 557.27,817.58 564.88,805.50 L 568.03 800.50 L 567.74 807.50 C567.48,814.10 567.32,814.52 564.98,814.85 C561.59,815.32 560.00,816.81 560.00,819.52 C560.00,821.18 559.14,822.10 556.85,822.90 C555.12,823.51 553.66,823.99 553.60,823.98 C553.55,823.98 552.88,823.58 552.12,823.09 ZM 624.46 822.94 C624.11,822.36 624.09,820.79 624.42,819.44 C625.01,817.11 623.91,816.36 620.71,816.90 C618.85,817.20 616.00,814.77 616.00,812.87 C616.00,811.74 615.10,809.67 614.00,808.27 C612.90,806.87 612.00,806.34 612.00,807.08 C612.00,808.09 611.58,808.01 610.34,806.77 C608.64,805.06 608.23,803.28 608.08,796.83 C608.01,793.55 607.63,793.03 604.50,792.00 C601.17,790.90 600.56,790.09 600.92,787.25 C601.13,785.70 595.95,776.72 595.25,777.41 C594.97,777.69 593.51,777.28 592.00,776.50 C590.49,775.72 589.01,775.32 588.72,775.61 C588.42,775.91 587.35,776.27 586.34,776.42 C584.46,776.70 584.35,777.09 583.81,785.13 C583.53,789.34 583.20,789.87 580.23,790.95 C578.06,791.74 576.51,793.24 575.59,795.43 C574.67,797.64 573.37,798.89 571.65,799.22 C569.32,799.66 569.19,799.51 570.16,797.60 C573.21,791.61 590.64,765.03 591.50,765.06 C592.05,765.08 597.07,772.16 602.66,780.80 C608.24,789.43 616.26,801.81 620.47,808.30 C625.67,816.32 628.97,820.42 630.78,821.11 C632.91,821.92 633.15,822.30 631.97,823.04 C629.97,824.30 625.27,824.24 624.46,822.94 ZM 712.67 823.33 C711.22,821.89 712.12,817.63 714.25,815.77 L 716.50 813.81 L 716.81 816.89 C716.98,818.59 718.02,820.60 719.11,821.36 C720.86,822.59 720.90,822.83 719.46,823.38 C717.32,824.20 713.51,824.17 712.67,823.33 ZM 767.12 821.90 C767.88,821.42 769.30,821.02 770.27,821.02 C771.25,821.01 774.61,820.10 777.74,819.00 C780.87,817.90 783.48,817.00 783.55,817.00 C783.61,817.00 783.67,817.79 783.67,818.75 C783.68,821.83 780.83,822.94 773.12,822.86 C768.50,822.81 766.26,822.45 767.12,821.90 ZM 675.44 814.09 C672.54,809.70 672.86,808.00 676.59,808.00 C679.62,808.00 680.65,810.29 679.12,813.63 C678.45,815.11 678.39,815.87 678.99,815.50 C679.55,815.16 680.00,815.33 680.00,815.88 C680.00,818.53 677.81,817.67 675.44,814.09 ZM 228.77 814.86 C228.13,814.46 227.25,814.35 226.83,814.61 C226.41,814.87 225.39,813.49 224.58,811.54 C223.59,809.16 222.45,808.00 221.11,808.00 C218.82,808.00 215.91,804.40 216.64,802.49 C216.91,801.78 216.68,800.92 216.11,800.57 C215.55,800.22 215.29,799.39 215.54,798.72 C215.80,798.05 216.12,795.96 216.27,794.08 C216.64,789.31 218.44,789.19 219.84,793.85 C221.32,798.79 227.02,806.47 232.59,811.00 C234.95,812.92 236.91,814.85 236.94,815.28 C237.01,816.22 230.43,815.89 228.77,814.86 ZM 787.00 815.40 C787.00,815.14 789.86,812.26 793.35,808.99 C797.71,804.91 800.74,800.95 803.01,796.33 C805.99,790.28 806.40,789.84 807.16,791.90 C807.62,793.16 807.71,794.67 807.34,795.25 C806.98,795.84 806.56,798.50 806.40,801.16 C806.06,807.07 805.53,808.00 802.55,808.00 C800.07,808.00 798.70,810.06 799.61,812.42 C800.33,814.29 796.87,816.16 794.95,814.95 C793.17,813.82 789.70,813.70 790.37,814.79 C790.64,815.23 789.99,815.65 788.93,815.73 C787.87,815.81 787.00,815.66 787.00,815.40 ZM 663.61 796.25 C659.43,789.79 656.48,784.34 657.05,784.15 C657.62,783.96 659.19,784.08 660.54,784.42 C662.46,784.90 663.00,785.69 663.00,787.98 C663.00,791.18 665.01,792.74 668.72,792.45 C669.95,792.35 670.76,792.57 670.54,792.94 C670.32,793.30 670.52,794.22 671.00,794.99 C671.50,795.81 671.43,797.19 670.83,798.32 C670.09,799.69 670.11,800.05 670.90,799.56 C671.92,798.93 672.60,802.00 671.99,804.50 C671.86,805.05 671.73,806.06 671.71,806.75 C671.68,807.44 671.57,808.00 671.44,808.00 C671.32,808.00 667.79,802.71 663.61,796.25 ZM 714.84 783.37 C713.77,782.17 713.32,780.32 713.58,778.20 C713.79,776.38 713.57,775.15 713.07,775.46 C712.56,775.77 712.48,774.86 712.89,773.32 C713.45,771.22 714.33,770.54 716.81,770.25 C718.61,770.05 720.00,770.35 720.00,770.94 C720.00,772.36 753.21,772.39 754.62,770.98 C755.19,770.41 756.74,769.74 758.07,769.49 C759.40,769.23 760.65,768.56 760.84,767.99 C761.53,765.92 764.40,763.69 764.80,764.91 C765.65,767.45 763.79,771.16 760.72,773.03 C757.82,774.80 755.62,774.99 738.37,775.00 C724.19,775.00 718.97,775.33 718.20,776.26 C717.62,776.96 717.00,779.26 716.82,781.38 C716.51,785.06 716.43,785.15 714.84,783.37 ZM 647.63 771.75 C641.36,762.11 640.58,760.45 642.21,760.17 C644.79,759.73 646.64,761.46 647.34,764.96 C647.82,767.37 648.48,767.92 651.21,768.18 C654.07,768.46 654.53,768.89 654.73,771.50 C654.85,773.15 655.23,776.41 655.57,778.75 C655.91,781.09 655.91,783.00 655.57,783.00 C655.22,783.00 651.65,777.94 647.63,771.75 ZM 528.00 776.50 C528.00,773.30 528.44,771.00 529.06,771.00 C529.64,771.00 529.87,770.60 529.56,770.10 C528.94,769.10 531.24,768.00 533.97,768.00 C535.34,768.00 535.93,766.92 536.45,763.48 C536.82,760.99 537.48,759.18 537.92,759.45 C538.35,759.72 539.69,758.90 540.88,757.63 C543.04,755.33 543.98,752.72 544.32,748.11 C544.51,745.53 545.92,744.45 550.25,743.54 C552.36,743.10 553.00,742.38 553.00,740.48 C553.00,739.12 553.45,738.00 554.00,738.00 C554.55,738.00 555.00,737.52 555.00,736.94 C555.00,736.36 554.44,736.20 553.75,736.59 C552.76,737.15 552.76,737.01 553.76,735.94 C554.81,734.80 555.23,734.82 556.38,736.04 C557.56,737.29 555.73,740.68 543.63,759.73 C535.86,771.96 529.16,781.97 528.75,781.98 C528.34,781.99 528.00,779.53 528.00,776.50 ZM 321.13 775.20 C317.25,775.02 314.19,774.33 313.31,773.45 C312.04,772.18 312.44,772.00 316.46,772.00 C319.62,772.00 321.24,771.53 321.64,770.51 C321.95,769.68 322.61,769.26 323.10,769.56 C323.60,769.87 324.00,769.61 324.00,769.00 C324.00,768.39 324.45,768.16 325.01,768.50 C326.49,769.42 329.11,774.84 328.25,775.19 C327.84,775.36 324.63,775.36 321.13,775.20 ZM 266.32 773.39 C262.75,771.62 260.00,766.73 260.00,762.13 C260.00,759.81 260.37,759.20 261.50,759.64 C262.48,760.01 263.00,761.57 263.00,764.11 C263.00,768.10 263.10,768.17 268.52,767.98 C269.81,767.94 273.66,772.63 273.24,773.75 C272.63,775.42 270.18,775.29 266.32,773.39 ZM 631.67 747.53 C624.93,737.41 624.35,736.19 626.76,737.22 C631.34,739.18 632.17,740.17 631.53,742.93 C631.21,744.34 631.29,745.05 631.72,744.50 C632.15,743.95 633.40,743.56 634.50,743.64 C635.60,743.72 637.09,743.84 637.81,743.89 C638.53,743.95 638.84,744.45 638.50,745.00 C638.16,745.55 638.25,746.00 638.69,746.00 C639.14,746.00 639.61,748.92 639.74,752.50 C639.86,756.08 639.82,759.00 639.64,759.00 C639.46,759.00 635.87,753.84 631.67,747.53 ZM 385.59 736.14 C385.29,735.66 384.96,733.75 384.85,731.89 C384.58,727.41 383.55,726.21 380.26,726.58 C377.06,726.93 375.75,725.34 377.11,722.79 C377.65,721.79 377.73,721.05 377.29,721.14 C376.86,721.24 375.60,720.98 374.50,720.56 C373.40,720.15 371.97,719.65 371.32,719.46 C370.66,719.27 369.61,718.13 368.97,716.94 C368.07,715.25 368.07,714.93 369.00,715.50 C369.92,716.07 369.94,715.75 369.09,714.16 C368.47,713.02 368.03,711.73 368.10,711.29 C368.76,707.39 367.76,705.31 364.52,703.84 C362.61,702.97 361.33,702.72 361.68,703.29 C362.04,703.87 361.82,704.00 361.15,703.60 C360.52,703.20 360.00,701.82 360.00,700.52 C360.00,696.87 358.96,695.00 356.93,695.00 C354.76,695.00 352.82,691.82 352.36,687.52 C351.66,681.02 351.13,680.14 347.75,679.81 C345.05,679.55 344.49,679.07 344.44,677.00 C344.36,673.37 342.85,671.50 340.00,671.50 C337.68,671.50 337.50,671.15 337.43,666.50 C337.39,663.75 337.17,660.98 336.93,660.35 C336.69,659.72 336.88,659.13 337.34,659.04 C337.81,658.94 348.49,673.79 361.09,692.03 C373.69,710.26 384.90,726.33 386.00,727.73 C387.10,729.13 388.00,731.78 388.00,733.63 C388.00,736.80 386.78,738.07 385.59,736.14 ZM 429.92 735.81 C429.88,735.09 429.70,733.71 429.51,732.74 C429.32,731.77 431.14,728.17 433.55,724.74 C435.95,721.31 439.84,715.67 442.18,712.20 C445.58,707.18 446.57,706.27 447.09,707.70 C447.47,708.77 447.17,709.83 446.36,710.30 C445.32,710.91 445.24,711.59 446.06,713.10 C447.74,716.25 446.82,719.34 444.00,720.00 C442.44,720.36 440.88,721.88 439.85,724.04 C438.95,725.94 437.55,727.51 436.74,727.52 C434.21,727.54 432.00,730.13 432.00,733.06 C432.00,735.83 430.07,738.38 429.92,735.81 ZM 556.57 734.43 C555.71,733.56 554.99,733.23 554.97,733.68 C554.95,734.13 554.47,733.69 553.89,732.70 C552.67,730.61 554.52,727.60 556.54,728.38 C558.25,729.03 560.00,727.01 560.00,724.37 C560.00,721.80 557.31,718.69 555.85,719.59 C554.68,720.32 552.08,717.15 552.03,714.93 C551.99,712.77 547.28,708.74 546.64,710.31 C546.38,710.97 546.12,710.24 546.08,708.69 C546.02,706.76 546.39,706.08 547.25,706.52 C547.94,706.86 547.83,706.55 547.00,705.82 C546.17,705.09 545.42,704.04 545.32,703.50 C545.23,702.95 544.86,701.77 544.52,700.88 C544.14,699.91 544.48,699.03 545.35,698.70 C546.37,698.30 549.51,702.22 555.97,711.95 L 565.13 725.76 L 561.98 730.88 C560.25,733.70 558.67,736.00 558.49,736.00 C558.30,736.00 557.44,735.29 556.57,734.43 ZM 620.31 730.18 L 617.31 725.37 L 632.12 703.02 C647.60,679.65 649.76,676.75 648.49,680.94 C648.08,682.28 647.80,685.54 647.86,688.19 C647.92,690.92 647.52,693.00 646.92,693.00 C646.35,693.00 646.17,693.46 646.52,694.02 C646.86,694.59 646.78,694.99 646.32,694.91 C643.54,694.42 642.06,695.50 640.00,699.50 C638.73,701.97 637.19,704.03 636.59,704.08 C634.74,704.21 631.83,704.83 631.50,705.17 C630.78,705.90 630.80,714.63 631.52,716.35 C632.47,718.64 630.64,719.96 626.50,719.98 L 623.50 720.00 L 623.62 727.50 C623.69,731.62 623.65,735.00 623.52,735.00 C623.40,735.00 621.95,732.83 620.31,730.18 ZM 448.00 704.29 C448.00,703.57 462.97,682.54 463.12,683.07 C463.18,683.31 463.35,685.87 463.50,688.76 C463.80,694.65 462.89,695.74 457.25,696.23 C456.56,696.28 456.00,697.31 456.00,698.51 C456.00,699.71 455.21,701.37 454.25,702.20 C452.47,703.74 448.00,705.24 448.00,704.29 ZM 542.46 696.93 C542.09,696.34 541.21,696.09 540.49,696.36 C538.53,697.12 536.00,693.74 536.00,690.37 C536.00,688.33 534.85,686.14 532.36,683.45 C529.90,680.79 528.66,678.44 528.54,676.25 C528.44,674.46 528.64,673.00 528.99,673.00 C529.65,673.00 546.00,696.52 546.00,697.47 C546.00,698.45 543.13,698.01 542.46,696.93 ZM 402.33 682.22 C399.12,677.39 396.05,672.71 395.50,671.82 C394.95,670.93 393.51,668.88 392.29,667.25 L 390.08 664.30 L 393.22 664.21 C398.07,664.08 399.97,665.52 399.52,669.01 C399.30,670.78 399.76,672.61 400.64,673.50 C401.47,674.33 401.87,675.00 401.53,675.00 C401.19,675.00 402.01,676.17 403.34,677.61 C405.57,680.01 407.03,680.45 414.32,680.89 C415.99,680.99 415.95,681.26 413.85,684.25 C412.60,686.04 411.22,687.65 410.79,687.83 C410.35,688.02 410.00,688.80 410.00,689.58 C410.00,692.63 407.93,690.65 402.33,682.22 ZM 529.75 686.75 C528.92,684.49 530.04,682.79 531.54,684.03 C532.28,684.64 532.63,685.79 532.33,686.57 C531.66,688.33 530.37,688.42 529.75,686.75 ZM 586.77 680.35 C570.60,655.47 558.49,637.40 557.57,636.77 C556.98,636.36 555.40,636.02 554.06,636.02 L 551.62 636.00 L 553.71 634.05 C556.55,631.41 559.54,631.76 559.79,634.77 C559.98,636.98 563.00,642.48 563.00,640.60 C563.00,640.14 564.80,641.61 567.00,643.88 C569.20,646.15 571.90,648.00 573.00,648.00 C574.10,648.00 575.03,648.34 575.08,648.75 C575.12,649.16 575.32,651.84 575.51,654.70 C575.95,660.91 577.41,664.00 579.91,664.00 C582.26,664.00 583.66,665.88 583.44,668.75 C583.35,669.99 583.55,671.07 583.89,671.16 C589.93,672.70 597.07,672.28 598.55,670.30 C601.83,665.90 602.48,663.91 600.95,662.95 C599.96,662.32 599.89,662.03 600.75,662.02 C601.44,662.01 602.00,661.52 602.00,660.94 C602.00,660.36 601.63,660.11 601.17,660.39 C600.71,660.68 600.41,659.93 600.50,658.74 C600.62,657.08 601.32,656.56 603.47,656.54 C605.52,656.51 606.52,655.84 607.19,654.03 C608.02,651.76 612.08,647.16 612.73,647.75 C613.71,648.65 614.84,647.49 616.36,644.04 C617.64,641.14 617.84,639.57 617.10,638.19 C616.38,636.84 616.48,635.76 617.46,634.36 C618.65,632.67 619.62,632.49 624.90,632.99 C632.00,633.67 635.72,636.00 629.70,636.00 C624.89,636.00 624.12,636.84 612.48,654.67 C607.16,662.83 600.20,673.48 597.01,678.35 L 591.23 687.20 L 586.77 680.35 ZM 465.70 678.68 C466.14,677.96 470.73,671.38 475.90,664.07 C485.68,650.21 486.54,649.68 487.38,656.90 C487.80,660.50 485.64,664.00 483.00,664.00 C480.73,664.00 479.62,665.59 479.55,668.97 C479.51,670.94 478.95,671.53 477.06,671.62 C474.57,671.75 471.00,675.21 471.00,677.50 C471.00,678.85 468.86,680.00 466.37,680.00 C465.42,680.00 465.18,679.54 465.70,678.68 ZM 416.68 673.25 C417.24,665.74 417.38,665.41 420.68,663.83 C422.55,662.93 423.66,661.49 424.01,659.49 C424.47,656.86 424.92,656.51 427.77,656.62 C429.54,656.69 431.00,656.40 431.00,655.98 C431.00,655.56 431.72,654.94 432.60,654.60 C433.97,654.07 433.93,654.41 432.35,656.87 C426.73,665.64 417.42,678.93 416.88,678.96 C416.54,678.98 416.45,676.41 416.68,673.25 ZM 650.85 678.17 C649.49,677.62 651.42,674.18 661.61,659.00 C672.25,643.16 673.94,640.10 673.42,637.68 C672.97,635.61 673.30,634.50 674.65,633.51 C677.10,631.72 678.73,633.19 678.50,636.99 C678.40,638.65 678.60,640.00 678.95,640.00 C680.33,640.00 679.45,643.71 677.63,645.54 C676.57,646.62 676.06,646.83 676.52,646.00 C677.01,645.10 676.43,645.30 675.07,646.50 C672.38,648.86 669.82,653.48 670.71,654.37 C671.05,654.72 670.70,655.07 669.92,655.15 C669.14,655.24 668.05,655.41 667.50,655.54 C666.95,655.66 665.89,655.82 665.13,655.88 C664.28,655.96 663.96,656.75 664.29,658.00 C664.58,659.10 664.37,660.27 663.84,660.60 C663.30,660.93 663.10,661.82 663.39,662.57 C663.68,663.32 663.56,664.16 663.12,664.42 C662.69,664.69 662.53,666.24 662.77,667.86 C663.12,670.27 662.77,670.93 660.85,671.50 C659.56,671.89 657.15,673.70 655.50,675.52 C653.45,677.80 651.98,678.63 650.85,678.17 ZM 520.91 668.53 C518.36,664.22 517.02,662.87 515.94,663.54 C515.42,663.86 515.00,663.61 515.00,663.00 C515.00,662.39 514.54,662.17 513.98,662.52 C513.41,662.86 513.01,662.78 513.09,662.32 C513.17,661.87 513.14,661.28 513.03,661.00 C512.91,660.72 512.66,658.92 512.46,657.00 C511.75,649.93 510.79,648.00 507.97,648.00 C506.23,648.00 502.48,642.85 503.49,641.84 C503.72,641.62 504.08,639.67 504.30,637.51 C504.79,632.79 507.05,630.90 509.39,633.25 C511.41,635.27 511.46,637.00 509.50,637.00 C506.39,637.00 508.30,641.09 518.53,656.34 L 529.06 672.04 L 525.88 671.79 C523.54,671.62 522.23,670.75 520.91,668.53 ZM 387.90 659.97 C387.04,659.48 383.04,654.12 379.03,648.04 L 371.73 637.00 L 366.36 637.00 C363.41,637.00 361.00,636.55 361.00,636.00 C361.00,635.45 362.09,635.00 363.42,635.00 C364.75,635.00 365.98,634.59 366.17,634.08 C366.35,633.58 368.14,632.86 370.15,632.49 C373.66,631.84 373.86,631.96 375.12,635.44 C375.95,637.75 377.24,639.27 378.67,639.63 C382.60,640.62 383.28,642.37 383.90,653.23 C383.96,654.19 385.10,655.24 386.46,655.58 C389.47,656.33 391.13,658.18 390.18,659.71 C389.74,660.43 388.90,660.52 387.90,659.97 ZM 329.33 654.75 C328.83,654.06 327.80,652.26 327.04,650.75 C326.28,649.24 324.89,648.00 323.95,648.00 C323.01,648.00 321.78,647.44 321.22,646.75 C320.11,645.41 320.07,634.60 321.16,633.51 C322.28,632.39 325.41,632.21 327.25,633.17 C329.39,634.27 329.57,637.00 327.50,637.00 C324.80,637.00 325.90,641.08 330.29,647.36 C336.64,656.46 336.49,656.00 333.18,656.00 C331.57,656.00 329.83,655.44 329.33,654.75 ZM 433.92 652.75 C433.88,652.61 433.72,650.09 433.57,647.15 C433.31,642.04 433.43,641.75 436.20,640.78 C437.80,640.22 438.88,639.55 438.61,639.28 C438.12,638.79 438.96,637.55 442.27,633.91 C443.68,632.36 444.45,632.17 446.02,633.01 C448.33,634.25 448.62,636.55 446.57,637.33 C445.78,637.64 442.84,641.28 440.04,645.44 C435.55,652.10 434.21,653.69 433.92,652.75 ZM 488.02 647.25 C488.03,646.84 488.92,645.38 490.00,644.00 C492.82,640.39 492.57,637.36 489.35,636.28 L 486.69 635.40 L 490.01 633.79 C494.94,631.40 496.00,632.31 496.00,638.95 C496.00,643.24 495.54,645.11 494.17,646.35 C492.33,648.01 487.98,648.65 488.02,647.25 ZM 259.59 638.15 C259.20,637.52 257.78,637.00 256.44,637.00 C253.88,637.00 253.50,636.34 254.84,634.23 C256.47,631.66 263.00,631.81 263.00,634.42 C263.00,636.55 260.38,639.42 259.59,638.15 ZM 215.68 636.57 C214.96,634.64 216.46,632.51 218.76,632.19 C221.29,631.83 224.17,634.13 223.16,635.70 C222.22,637.15 216.16,637.86 215.68,636.57 ZM 216.87 575.75 C216.80,575.61 216.64,574.49 216.51,573.25 C216.29,571.19 216.69,571.00 221.17,571.00 C225.66,571.00 225.99,571.16 225.06,572.88 C224.51,573.92 223.33,575.04 222.45,575.38 C220.86,575.99 217.12,576.24 216.87,575.75 ZM 257.54 575.06 C257.18,574.48 256.01,574.00 254.94,574.00 C253.87,574.00 253.00,573.58 253.00,573.07 C253.00,572.55 251.76,571.95 250.25,571.72 C248.74,571.49 249.86,571.23 252.74,571.15 C256.68,571.04 258.27,570.53 259.16,569.12 C260.25,567.37 260.46,567.35 262.06,568.87 C263.00,569.77 263.72,571.62 263.64,573.00 C263.53,574.92 262.88,575.57 260.84,575.81 C259.38,575.98 257.89,575.64 257.54,575.06 ZM 762.90 468.09 C762.62,467.31 762.58,465.42 762.80,463.88 C763.16,461.48 763.42,461.28 764.61,462.47 C766.19,464.05 766.45,466.00 765.07,466.00 C764.56,466.00 763.98,466.79 763.78,467.75 C763.50,469.08 763.28,469.16 762.90,468.09 ZM 762.16 458.12 C760.15,456.85 759.43,450.00 761.31,450.00 C762.80,450.00 763.52,451.21 765.03,456.25 C765.90,459.13 764.84,459.82 762.16,458.12 ZM 260.59 455.00 C261.37,452.22 264.11,448.08 265.21,448.03 C265.60,448.01 266.73,447.15 267.71,446.12 C270.87,442.80 295.15,423.00 296.07,423.00 C296.55,423.00 296.70,424.46 296.39,426.25 C295.43,431.81 295.12,432.26 292.55,431.77 C289.29,431.14 287.84,432.21 287.65,435.36 C287.53,437.39 286.66,438.32 283.75,439.48 C280.39,440.83 279.52,441.90 279.88,444.23 C280.14,445.98 274.84,448.24 271.66,447.72 C269.13,447.31 268.09,447.63 267.17,449.09 C266.52,450.14 265.29,451.00 264.43,451.00 C263.58,451.00 263.13,451.40 263.44,451.90 C263.74,452.39 263.07,453.85 261.94,455.15 L 259.89 457.50 L 260.59 455.00 ZM 745.33 446.41 C744.99,445.54 744.67,443.89 744.61,442.76 C744.55,441.62 743.83,440.58 743.00,440.45 C739.45,439.88 738.42,439.40 737.15,437.68 C736.40,436.68 735.99,434.85 736.23,433.60 C736.49,432.21 736.15,431.27 735.33,431.17 C732.18,430.77 731.43,430.77 730.13,431.12 C729.38,431.33 728.59,430.71 728.38,429.75 C728.17,428.79 727.86,427.29 727.68,426.42 C727.28,424.44 725.09,423.03 723.42,423.67 C722.72,423.94 721.67,423.25 721.08,422.14 C719.92,419.99 719.61,416.00 720.60,416.00 C720.92,416.00 726.21,420.19 732.35,425.30 C738.48,430.42 746.42,437.01 750.00,439.94 C759.24,447.52 759.36,448.00 752.02,448.00 C747.39,448.00 745.79,447.62 745.33,446.41 ZM 216.93 442.00 C216.87,441.73 216.66,438.03 216.48,433.80 C216.16,426.62 216.29,426.04 218.32,425.34 C220.75,424.51 221.54,424.31 223.00,424.12 C223.55,424.06 224.00,422.94 224.00,421.65 C224.00,420.37 224.90,418.50 226.00,417.50 C227.10,416.50 228.00,416.00 228.00,416.38 C228.00,416.76 228.90,416.59 230.00,416.00 C231.10,415.41 232.00,414.07 232.00,413.02 C232.00,411.98 232.46,410.84 233.02,410.49 C233.58,410.14 233.84,409.56 233.61,409.18 C233.38,408.81 234.28,408.43 235.60,408.36 C239.88,408.10 241.26,407.12 240.79,404.68 C240.21,401.66 241.71,400.40 246.86,399.57 C247.61,399.45 248.68,398.53 249.24,397.54 C249.97,396.23 249.94,395.92 249.12,396.43 C248.29,396.94 248.30,396.43 249.15,394.56 C250.21,392.24 250.86,392.00 256.16,392.00 C259.37,392.00 262.00,392.39 262.00,392.88 C262.00,393.36 256.49,398.19 249.75,403.61 C228.17,420.98 224.14,425.40 219.33,437.00 C218.07,440.02 217.00,442.27 216.93,442.00 ZM 803.17 433.59 C799.54,425.52 793.22,418.75 777.40,406.00 C748.90,383.04 705.12,346.55 705.55,346.12 C705.83,345.84 707.37,345.52 708.98,345.41 C711.50,345.23 712.07,345.69 713.03,348.60 C713.65,350.47 714.73,352.00 715.44,352.00 C716.15,352.00 717.92,352.93 719.36,354.07 C721.77,355.96 722.14,356.00 723.58,354.56 C725.57,352.57 727.00,353.40 727.00,356.54 C727.00,358.93 727.77,359.37 733.50,360.22 C735.02,360.45 735.57,361.41 735.81,364.26 C736.06,367.22 736.53,368.00 738.11,368.00 C740.52,368.00 745.00,372.60 745.00,375.08 C745.00,376.37 745.91,376.96 748.25,377.19 C750.77,377.43 751.57,378.02 751.83,379.81 C752.17,382.21 757.68,386.32 759.25,385.35 C759.73,385.05 760.02,385.41 759.87,386.15 C759.46,388.24 761.00,391.99 762.32,392.10 C762.97,392.16 764.99,392.12 766.81,392.02 C769.21,391.89 770.76,392.53 772.45,394.36 C773.74,395.74 775.09,396.58 775.45,396.22 C775.81,395.86 775.78,396.41 775.38,397.44 C774.91,398.69 775.03,399.10 775.74,398.66 C776.34,398.29 777.00,398.50 777.21,399.12 C777.41,399.74 778.75,400.25 780.18,400.25 C782.03,400.25 782.71,400.72 782.53,401.88 C782.38,402.77 782.88,404.72 783.63,406.20 C784.75,408.40 785.56,408.83 787.98,408.53 C789.61,408.32 790.89,408.46 790.81,408.83 C790.32,411.23 792.55,414.88 795.27,416.10 C796.99,416.87 799.12,418.85 800.02,420.50 C800.92,422.15 802.63,423.64 803.83,423.82 C806.83,424.26 807.79,426.64 807.32,432.50 C807.10,435.25 806.91,438.29 806.90,439.25 C806.89,440.21 806.79,441.00 806.69,441.00 C806.58,441.00 805.00,437.66 803.17,433.59 ZM 298.06 422.58 C297.27,421.62 297.32,421.00 298.24,420.29 C301.06,418.10 301.94,418.02 302.91,419.83 C303.73,421.37 303.48,421.92 301.54,422.80 C299.72,423.63 298.89,423.57 298.06,422.58 ZM 306.27 415.16 C305.60,414.75 312.46,408.40 323.21,399.48 C333.15,391.24 341.93,384.12 342.72,383.66 C343.87,382.98 344.09,383.48 343.83,386.16 C343.42,390.30 341.64,392.27 338.17,392.40 C335.93,392.48 335.51,392.95 335.56,395.25 C335.61,397.74 334.91,398.46 332.75,398.12 C332.34,398.05 332.00,398.48 332.00,399.06 C332.00,399.64 331.59,399.86 331.08,399.55 C329.43,398.53 327.24,401.81 327.59,404.79 C327.92,407.67 327.90,407.68 322.71,407.56 C318.08,407.44 317.14,407.79 314.22,410.69 C310.20,414.70 307.75,416.08 306.27,415.16 ZM 713.53 414.04 C712.58,412.99 712.07,411.70 712.40,411.17 C712.95,410.28 704.93,405.85 703.26,406.12 C700.38,406.57 698.77,405.64 697.85,403.00 C697.27,401.35 696.29,399.95 695.65,399.89 C695.02,399.83 693.15,399.71 691.50,399.64 C688.89,399.52 688.50,399.12 688.50,396.61 C688.50,393.61 687.26,392.48 682.97,391.60 C681.09,391.21 680.38,390.37 680.22,388.33 C679.94,385.01 679.25,384.27 676.00,383.84 C672.88,383.42 672.07,382.34 672.62,379.32 C673.06,376.91 672.73,376.65 667.79,375.57 C665.93,375.17 665.25,374.51 665.63,373.51 C666.00,372.56 665.20,371.61 663.35,370.79 C661.78,370.10 660.25,369.20 659.95,368.79 C659.65,368.38 657.19,367.92 654.48,367.77 C649.99,367.52 649.45,367.23 648.53,364.50 C647.41,361.19 645.53,358.80 644.70,359.63 C644.41,359.92 643.29,359.69 642.21,359.11 C640.01,357.94 638.47,352.86 640.55,353.66 C641.24,353.92 642.04,353.75 642.33,353.28 C642.62,352.81 642.10,352.35 641.18,352.25 C631.41,351.20 631.51,351.26 631.82,346.55 C632.02,343.66 631.77,343.25 630.13,343.68 C626.91,344.52 624.20,342.43 624.75,339.54 C625.02,338.14 625.46,337.00 625.73,337.00 C626.01,337.00 635.29,344.56 646.37,353.81 C662.75,367.49 704.95,402.49 717.33,412.68 C718.88,413.95 720.01,415.03 719.83,415.07 C716.31,415.87 715.00,415.66 713.53,414.04 ZM 264.00 388.11 C264.00,387.17 264.54,385.86 265.20,385.20 C266.65,383.75 270.38,383.58 269.50,385.00 C269.16,385.55 269.12,386.00 269.41,386.00 C270.53,386.00 272.36,381.37 272.18,378.96 C272.01,376.60 272.31,376.42 276.50,376.37 C278.98,376.34 281.00,376.64 281.00,377.03 C281.00,378.15 267.20,389.35 265.51,389.60 C264.67,389.73 264.00,389.07 264.00,388.11 ZM 345.00 382.45 C345.00,381.78 346.52,380.08 348.38,378.66 L 351.75 376.09 L 351.75 378.50 C351.75,379.83 351.02,381.55 350.12,382.33 C348.15,384.04 345.00,384.12 345.00,382.45 ZM 281.88 375.50 C281.81,375.23 281.69,374.59 281.62,374.08 C281.56,373.58 281.21,372.88 280.86,372.53 C279.25,370.92 281.34,368.10 284.35,367.81 C287.03,367.55 287.55,367.05 287.83,364.50 C288.24,360.67 289.36,359.54 291.54,360.76 C293.57,361.90 297.53,358.67 296.38,356.81 C295.99,356.17 296.14,355.97 296.73,356.33 C297.30,356.69 298.02,356.04 298.32,354.89 C298.62,353.74 299.35,353.10 299.93,353.46 C300.52,353.82 301.00,353.68 301.00,353.14 C301.00,352.60 303.08,352.27 305.63,352.40 C309.18,352.59 310.69,352.18 312.13,350.63 C313.16,349.53 314.00,348.30 314.00,347.91 C314.00,347.52 315.61,345.59 317.57,343.63 C319.54,341.66 320.90,339.64 320.59,339.14 C319.99,338.17 321.83,336.24 323.50,336.07 C325.75,335.86 328.01,334.81 328.12,333.93 C328.19,333.42 328.31,332.57 328.38,332.05 C328.61,330.23 330.87,328.75 333.41,328.75 C336.77,328.75 338.46,326.72 337.14,324.26 C335.65,321.48 337.28,319.67 340.81,320.19 C343.27,320.55 344.05,320.18 344.94,318.24 C345.54,316.93 345.77,315.43 345.45,314.93 C345.14,314.42 346.15,313.97 347.69,313.92 C350.64,313.84 352.86,313.50 356.69,312.54 C360.03,311.70 359.53,313.36 355.52,316.42 C352.06,319.06 315.85,348.77 313.00,351.32 C308.06,355.72 283.07,376.00 282.58,376.00 C282.26,376.00 281.94,375.77 281.88,375.50 ZM 364.37 367.53 C363.10,366.60 365.62,364.11 379.17,352.87 C388.15,345.43 398.35,336.95 401.82,334.02 L 408.15 328.70 L 407.82 332.10 C407.56,334.82 407.05,335.52 405.25,335.61 C404.01,335.68 403.00,335.31 403.00,334.79 C403.00,334.28 402.33,334.53 401.50,335.36 C400.67,336.18 399.99,337.68 399.98,338.68 C399.96,341.35 398.82,342.48 396.00,342.63 C394.62,342.70 393.16,342.82 392.75,342.88 C392.34,342.95 392.00,344.38 392.00,346.07 C392.00,349.02 389.99,352.19 388.30,351.90 C386.31,351.56 383.73,352.06 384.34,352.67 C384.71,353.04 384.28,354.44 383.40,355.79 C382.25,357.54 382.18,358.03 383.15,357.48 C384.08,356.95 384.19,357.04 383.50,357.77 C382.95,358.35 381.60,358.98 380.50,359.17 C377.88,359.60 376.71,360.85 375.47,364.50 C374.61,367.05 373.81,367.59 370.18,368.07 C367.67,368.41 365.27,368.18 364.37,367.53 ZM 686.35 331.18 C678.01,324.21 669.46,317.04 667.35,315.25 L 663.50 312.00 L 667.00 312.25 C669.77,312.45 670.57,312.97 670.82,314.75 C671.02,316.14 672.05,317.23 673.53,317.60 C674.84,317.93 676.44,318.82 677.07,319.59 C677.71,320.35 678.68,320.70 679.23,320.36 C679.77,320.02 680.61,320.36 681.08,321.12 C681.80,322.27 682.29,322.28 684.07,321.18 C685.25,320.45 685.91,320.34 685.55,320.93 C685.18,321.52 685.31,322.00 685.82,322.00 C686.34,322.00 687.01,322.94 687.31,324.08 C687.71,325.63 687.47,326.01 686.38,325.59 C685.54,325.27 685.16,325.46 685.51,326.01 C685.84,326.56 686.98,327.00 688.02,327.00 C689.07,327.00 691.30,328.33 692.97,329.97 C696.08,333.01 696.97,334.70 694.75,333.37 C693.93,332.88 693.99,333.22 694.90,334.34 C695.67,335.30 697.02,336.01 697.90,335.92 C701.25,335.60 703.10,336.04 702.50,337.00 C702.16,337.55 702.28,338.00 702.77,338.00 C703.27,338.00 703.67,339.35 703.67,341.00 C703.67,342.65 703.18,343.97 702.58,343.93 C701.99,343.90 694.68,338.16 686.35,331.18 ZM 617.50 335.66 C616.95,335.02 616.04,333.15 615.48,331.50 C614.51,328.66 614.13,328.49 608.51,328.24 C602.05,327.95 600.80,327.26 600.42,323.79 C600.28,322.53 600.13,321.21 600.08,320.85 C600.04,320.49 598.63,320.29 596.96,320.41 C593.48,320.65 592.19,319.46 592.47,316.25 C592.58,315.01 592.26,314.00 591.77,314.00 C591.28,314.00 591.16,313.55 591.50,313.00 C591.87,312.41 590.69,312.00 588.59,312.00 C586.24,312.00 584.78,311.42 584.19,310.25 C583.28,308.43 583.97,304.02 585.22,303.69 C585.62,303.59 593.04,309.41 601.72,316.64 C610.40,323.87 618.55,330.63 619.83,331.66 C622.07,333.48 622.09,333.61 620.33,335.18 C618.97,336.40 618.25,336.52 617.50,335.66 ZM 411.65 327.24 C411.32,326.71 421.06,317.88 433.28,307.61 C451.98,291.90 455.55,289.28 455.83,291.05 C456.19,293.35 453.26,296.21 451.28,295.51 C449.47,294.88 447.10,297.69 447.66,299.80 C448.23,301.99 446.43,303.68 443.01,304.15 C441.13,304.41 440.39,305.24 440.00,307.50 C439.61,309.76 438.72,310.75 436.39,311.50 C432.27,312.84 430.00,314.83 430.65,316.54 C431.01,317.46 429.62,318.70 426.59,320.17 C423.32,321.76 422.00,323.00 422.00,324.48 C422.00,325.74 421.30,326.64 420.25,326.74 C419.29,326.84 417.09,327.21 415.37,327.56 C413.65,327.91 411.97,327.76 411.65,327.24 ZM 651.82 302.68 C646.50,298.18 638.53,291.58 634.11,288.00 C629.69,284.42 626.05,281.25 626.03,280.95 C626.02,280.65 628.67,280.32 631.94,280.22 C638.13,280.03 638.67,280.43 639.62,285.90 C639.97,287.88 641.94,288.88 644.58,288.40 C646.44,288.06 647.07,288.65 648.13,291.74 C648.83,293.81 649.35,295.75 649.27,296.05 C649.19,296.36 650.45,296.51 652.07,296.40 C654.32,296.25 655.03,296.64 655.12,298.10 C655.19,299.14 655.36,300.45 655.50,301.00 C655.64,301.55 655.81,302.45 655.88,303.00 C655.94,303.55 657.29,304.00 658.88,304.00 C660.46,304.00 662.30,304.65 662.96,305.45 C664.31,307.08 664.03,310.19 662.50,310.60 C661.95,310.75 657.15,307.18 651.82,302.68 ZM 360.92 309.75 C359.78,306.01 362.05,302.65 364.24,304.84 C365.74,306.34 367.33,306.34 366.40,304.85 C365.98,304.15 366.13,303.96 366.79,304.37 C367.50,304.81 367.99,303.56 368.19,300.77 C368.41,297.68 368.90,296.59 369.94,296.81 C372.25,297.32 376.13,296.03 375.48,294.97 C375.15,294.44 375.34,294.00 375.89,294.00 C376.45,294.00 376.74,292.72 376.55,291.17 C376.22,288.60 376.46,288.35 379.05,288.50 C383.24,288.75 384.45,287.58 384.18,283.56 L 383.94 280.00 L 390.30 280.00 C393.80,280.00 396.94,280.28 397.28,280.61 C397.61,280.95 396.68,282.21 395.19,283.42 C393.71,284.64 385.89,291.11 377.80,297.81 C365.20,308.26 361.31,311.01 360.92,309.75 ZM 576.31 299.90 C576.31,297.75 576.52,296.00 576.77,296.00 C577.03,296.00 578.73,297.31 580.56,298.92 C584.07,302.00 583.68,302.82 578.40,303.51 C576.59,303.75 576.31,303.27 576.31,299.90 ZM 566.57 291.20 C563.79,287.69 563.34,287.50 557.99,287.55 C552.41,287.61 552.35,287.57 552.51,284.79 C552.70,281.72 550.99,279.77 547.67,279.27 C544.83,278.83 544.05,277.93 543.79,274.71 C543.66,273.22 542.99,271.94 542.28,271.88 C541.58,271.81 540.47,271.69 539.82,271.62 C539.17,271.56 537.70,269.70 536.55,267.50 C534.82,264.19 533.99,263.54 531.73,263.70 C530.21,263.82 528.94,263.37 528.87,262.70 C528.80,262.04 528.69,260.56 528.62,259.41 C528.42,256.02 526.17,254.07 522.92,254.48 C520.24,254.82 520.00,254.60 520.00,251.77 C520.00,248.93 520.13,248.81 521.75,250.20 C526.09,253.96 560.18,282.13 566.25,286.97 C569.96,289.93 573.00,292.95 573.00,293.68 C573.00,296.23 569.47,294.87 566.57,291.20 ZM 460.75 287.20 C459.79,287.01 459.03,286.55 459.08,286.18 C459.18,285.24 494.68,256.00 495.71,256.00 C496.18,256.00 496.39,257.73 496.19,259.85 C495.84,263.48 495.63,263.70 492.66,263.53 C488.21,263.29 487.25,263.80 487.45,266.30 C487.65,268.88 485.31,272.05 483.66,271.44 C481.80,270.76 479.92,272.49 479.64,275.13 C479.27,278.57 478.27,279.87 476.25,279.54 C472.99,279.02 471.02,280.84 471.39,284.02 C471.59,285.71 471.25,287.06 470.62,287.15 C467.99,287.49 462.37,287.52 460.75,287.20 ZM 400.19 275.97 C399.97,272.98 400.39,272.70 406.48,271.78 C407.86,271.57 408.53,270.61 408.68,268.59 C408.96,265.00 409.85,264.07 413.29,263.79 C415.46,263.61 416.00,263.06 416.02,261.03 C416.04,257.24 417.36,255.84 420.60,256.19 C423.15,256.46 423.54,256.15 423.83,253.60 C424.15,250.77 426.13,247.90 427.71,247.95 C431.13,248.06 432.61,245.75 432.19,240.96 C432.16,240.67 433.01,240.43 434.07,240.43 C435.13,240.43 436.00,240.80 436.00,241.25 C436.00,241.70 436.79,241.68 437.75,241.20 C438.71,240.73 441.30,240.24 443.50,240.12 C447.01,239.94 447.31,240.09 446.00,241.35 C444.73,242.57 404.49,275.77 401.46,278.10 C400.80,278.60 400.34,277.82 400.19,275.97 ZM 619.49 275.80 C617.00,272.85 616.94,272.55 618.63,271.95 C621.72,270.87 623.57,271.96 623.80,275.00 C624.12,279.17 622.56,279.46 619.49,275.80 ZM 601.00 260.83 C586.75,248.99 575.47,239.75 551.33,220.12 C540.56,211.36 530.32,205.00 527.00,205.00 C526.39,205.00 526.21,204.47 526.61,203.83 C527.11,203.01 526.75,202.88 525.41,203.39 C524.14,203.87 523.83,203.78 524.50,203.12 C525.05,202.57 527.46,201.89 529.85,201.61 C533.95,201.12 534.27,201.26 535.32,204.04 C535.94,205.67 536.79,207.06 537.22,207.12 C539.04,207.42 539.62,207.64 542.00,208.95 C543.38,209.72 544.61,210.26 544.75,210.17 C545.57,209.62 550.98,210.13 550.88,210.75 C550.46,213.41 554.46,219.12 555.20,216.91 C555.90,214.79 559.74,216.85 559.59,219.27 C559.44,221.80 560.34,222.86 564.45,225.00 C566.03,225.82 567.44,227.31 567.58,228.30 C567.95,230.88 569.93,232.96 571.45,232.38 C573.01,231.78 577.00,236.54 577.00,238.98 C577.00,240.39 577.73,240.63 581.00,240.30 C583.62,240.04 585.00,240.30 585.00,241.07 C585.00,241.95 585.34,241.96 586.37,241.11 C587.81,239.91 590.92,240.57 591.11,242.11 C591.17,242.60 591.27,244.01 591.33,245.25 C591.41,247.01 592.30,247.72 595.47,248.50 C599.04,249.39 599.50,249.84 599.54,252.49 C599.56,254.69 600.10,255.57 601.54,255.78 C606.97,256.60 607.73,257.03 607.70,259.23 C607.66,263.36 608.96,265.09 611.18,263.90 C614.62,262.06 616.05,263.48 615.76,268.47 C615.62,270.96 615.50,272.96 615.50,272.93 C615.50,272.90 608.97,267.45 601.00,260.83 ZM 499.06 254.04 C498.13,253.46 498.39,252.84 500.06,251.67 C502.57,249.92 504.20,250.30 503.38,252.45 C502.68,254.27 500.64,255.02 499.06,254.04 ZM 507.00 247.08 C507.00,245.80 512.52,244.71 514.99,245.50 C516.11,245.85 516.77,246.56 516.46,247.07 C515.71,248.28 507.00,248.29 507.00,247.08 ZM 448.18 236.27 C448.49,233.59 449.05,233.37 454.08,233.89 C455.18,234.00 449.76,239.00 448.54,239.00 C448.17,239.00 448.01,237.77 448.18,236.27 ZM 456.48 229.22 C456.67,225.27 457.51,224.31 461.49,223.57 C464.56,222.99 465.00,222.54 465.00,219.95 C465.00,218.33 465.45,216.94 466.00,216.88 C466.55,216.81 467.45,216.64 468.00,216.50 C468.55,216.36 469.42,216.19 469.93,216.12 C470.89,216.00 472.30,212.71 472.88,209.25 C473.03,208.32 485.00,208.18 485.00,209.10 C485.00,209.47 483.99,210.44 482.75,211.26 C481.51,212.08 475.36,217.08 469.07,222.38 C462.78,227.67 457.35,232.00 457.00,232.00 C456.64,232.00 456.41,230.75 456.48,229.22 ZM 488.00 205.19 C488.00,201.28 490.60,199.94 496.82,200.63 C505.51,201.60 505.99,202.49 498.86,204.42 C487.59,207.47 488.00,207.44 488.00,205.19 Z" fill="rgb(252,252,252)"/>
</g>
</svg>